<svg xmlns="http://www.w3.org/2000/svg" xmlns:xlink="http://www.w3.org/1999/xlink" viewBox="0 0 41.98 31.59"><defs><style>.cls-1{isolation:isolate;}.cls-2{fill:url(#linear-gradient);}.cls-3{fill:url(#radial-gradient);}.cls-4{fill:#fefefe;opacity:0.55;}.cls-5{opacity:0.05;}.cls-5,.cls-7,.cls-8{mix-blend-mode:multiply;}.cls-6{fill:#dcd589;}.cls-7{opacity:0.1;}.cls-8{opacity:0.18;}.cls-9{fill:#b4aa53;}.cls-10{fill:#6d4c30;}.cls-11{fill:url(#linear-gradient-2);}.cls-12{fill:url(#radial-gradient-2);}</style><linearGradient id="linear-gradient" x1="-294.87" y1="-19.83" x2="-265.96" y2="-19.83" gradientTransform="matrix(-0.94, 0.33, 0.33, 0.94, -244.16, 127.25)" gradientUnits="userSpaceOnUse"><stop offset="0.2" stop-color="#aab699"/><stop offset="0.5" stop-color="#718554"/><stop offset="1" stop-color="#5a6454"/></linearGradient><radialGradient id="radial-gradient" cx="-280.72" cy="-19.47" r="15.41" gradientTransform="matrix(-0.98, -0.2, -0.31, 1.52, -266.76, -10.74)" gradientUnits="userSpaceOnUse"><stop offset="0.4" stop-color="#f0f3d4"/><stop offset="0.54" stop-color="#edf1cc"/><stop offset="0.76" stop-color="#e4eab7"/><stop offset="1" stop-color="#d8e098"/></radialGradient><linearGradient id="linear-gradient-2" x1="-387.32" y1="58.56" x2="-358.41" y2="58.56" gradientTransform="matrix(-0.41, 0.91, 0.91, 0.41, -179.26, 331.9)" xlink:href="#linear-gradient"/><radialGradient id="radial-gradient-2" cx="-373.17" cy="58.91" r="15.41" gradientTransform="matrix(-0.82, 0.57, 0.89, 1.27, -330.72, 154.02)" xlink:href="#radial-gradient"/></defs><g class="cls-1"><g id="Capa_2" data-name="Capa 2"><g id="Capa_1-2" data-name="Capa 1"><path class="cls-2" d="M20.09.86c7.49,1.82,10.29,16.85,3.66,25s-18.1,6.71-22-1.41S2.26-3.45,20.09.86Z"/><path class="cls-3" d="M20.41,1.79C27.74,3.71,29.34,19.37,23,25.7,15.89,32.86,6.49,31.76,2.7,24S6.33-1.9,20.41,1.79Z"/><path class="cls-4" d="M14.7,10.92c2.19-.77.45,5.48-.52,4.1S12.74,11.61,14.7,10.92Z"/><path class="cls-4" d="M19.7,14.08c1.09.88-1.87,3.64-3.56,2.58S18.55,13.16,19.7,14.08Z"/><path class="cls-4" d="M14.17,17.18c1.32,0,1.69,3.88-.14,3.86S12.2,17.21,14.17,17.18Z"/><path class="cls-4" d="M12.85,14.83a1.16,1.16,0,0,1-1.8,1.46C9.65,15.13,11.39,13,12.85,14.83Z"/><path class="cls-4" d="M17,17.83c1.8-.86,1.92,2.64.83,2.36S15.77,18.44,17,17.83Z"/><path class="cls-4" d="M11.53,18.61c.92.79-1.51,1.85-2,1S9.87,17.2,11.53,18.61Z"/><path class="cls-4" d="M16.4,13.67c1.6-.41,2.59-1.7,2-2.28S16.4,13.67,16.4,13.67Z"/><path class="cls-4" d="M12.94,13.94c-.63-1.37-1-2.69-1.38-2.49s-.53.77.09,1.5A3.76,3.76,0,0,0,12.94,13.94Z"/><g class="cls-5"><path class="cls-6" d="M11.85,5.18c-3.28,1-4.72,5-5.09,8.08H8.34a18.65,18.65,0,0,1,2.37-6.71.79.79,0,0,0-.88-1.14c-3.3.46-4,5.7-4.23,8.23-.09.94,1.31,1,1.58.21.62-1.86,3.49-5.33,2-7.25a.74.74,0,0,0-.72-.19c-3.28.48-3.74,7.33-3.66,9.86a.79.79,0,0,0,1.54.2A20.42,20.42,0,0,0,7.48,8.92a.78.78,0,0,0-1.16-.67C4.56,9.12,4.2,11.16,3.91,13c-.22,1.38-.71,3,.57,3.91a.79.79,0,0,0,1.15-.47,19.56,19.56,0,0,0,.5-5.66A.8.8,0,0,0,5,10.05C2.6,11.64,2.9,15.84,3.52,18.23a.74.74,0,0,0,1.42,0,6.66,6.66,0,0,0,.31-4.57.76.76,0,0,0-1.37-.18,8.21,8.21,0,0,0-.55,6.33.78.78,0,0,0,1.5-.42,7,7,0,0,1,.34-5.15L3.8,14.06a4.31,4.31,0,0,1-.21,3.61l1.35.17c-.25-1.48-.8-5.34.8-6.43l-1.18-.68A18.08,18.08,0,0,1,4.12,16l1.15-.47c-.42-.29.24-2.71.31-3,.21-1,.45-2.34,1.52-2.88L5.94,8.92a18.49,18.49,0,0,1-1.11,7.14l1.54.21A18.71,18.71,0,0,1,7.52,9.63c.55-1.79-.13,0-.37.58a30.91,30.91,0,0,1-1.44,3l1.5.41c.24-1.84.59-6.35,3-6.73L9.36,5.77a22.94,22.94,0,0,0-2.6,7.49c-.11.87,1.41,1.09,1.55.21.39-2.39,1.38-6,3.92-6.91.85-.31.52-1.66-.38-1.38Z"/></g><g class="cls-5"><path class="cls-6" d="M19,28a12.75,12.75,0,0,0,6.48-9.8c.11-.83-1.15-.9-1.4-.19a15.3,15.3,0,0,1-6.45,8.46l.9,1.17a17.56,17.56,0,0,0,5.93-11.37H23c-.22,3.61-2.1,6.42-4.12,9.28-.49.69.58,1.45,1.16.89,3.63-3.55,6.32-7.61,5.55-12.86-.12-.84-1.39-.59-1.42.19a16.26,16.26,0,0,1-3.35,9.36c-.48.64.59,1.46,1.11.86a15,15,0,0,0,3.53-13.48L24,11.09c1.85,3.3-.52,7.93-2.19,10.76l1.18.69a20.8,20.8,0,0,0,2.3-13L24,10.14c2.25,4.35-.05,11-3.05,14.48l1.21.94A19.7,19.7,0,0,0,24.3,8.89a.78.78,0,0,0-1.5.42,18.53,18.53,0,0,1-2,15.47c-.45.73.64,1.61,1.21.93,3.51-4.12,5.89-11.24,3.24-16.32-.42-.81-1.47-.2-1.36.57a18.6,18.6,0,0,1-2,11.89.68.68,0,0,0,1.18.69c2.27-3.19,4.44-8.45,2.31-12.21a.76.76,0,0,0-1.38.58A13.49,13.49,0,0,1,20.89,23l1.11.86a17.22,17.22,0,0,0,3.58-10.08l-1.42.2c.68,4.73-2,8.32-5.2,11.43l1.15.89c2.22-3.12,4.11-6.13,4.35-10,.07-1-1.39-.94-1.5,0a16,16,0,0,1-5.48,10.32c-.63.56.19,1.6.9,1.16a16.49,16.49,0,0,0,7.08-9.36l-1.4-.19a11.81,11.81,0,0,1-5.58,8.9A.52.52,0,0,0,19,28Z"/></g><g class="cls-7"><path class="cls-6" d="M22,5.63c-.21.37.69,1.5.85,1.81A9.39,9.39,0,0,1,24,11.57a22.64,22.64,0,0,1-1,5.77.71.71,0,0,0,1.37.38A18.76,18.76,0,0,0,22.58,3.38a.72.72,0,0,0-1.25.73c2.4,4.38,4.71,9,2.79,14l1.55.21c.48-5,.58-9.91-2.34-14.19-.47-.69-1.81-.27-1.44.6,1.62,3.9,2.82,9.68.46,13.54l1.46.4c.36-4.63.31-9.83-1.74-14.1-.4-.84-1.6-.22-1.43.6.83,4.17,1.5,8.2.45,12.38l1.51.2c.12-2.83.25-5.65.38-8.48H21.46a33.69,33.69,0,0,1-1,7.94H22l.34-1.16L21,15.52a6.45,6.45,0,0,1-1.14,3.7l1.38.37a6.08,6.08,0,0,1,1-2.89A.73.73,0,0,0,21,16l-.76,1.25,1.14-.14.06.25c.21-.91-1.2-1.3-1.41-.38a1,1,0,0,0,.32,1.16A.74.74,0,0,0,21.47,18l.76-1.25L21,16a9.49,9.49,0,0,0-1.2,3.63c-.11.79,1,.92,1.38.38a7.76,7.76,0,0,0,1.36-4.45A.77.77,0,0,0,21.22,15a2.67,2.67,0,0,0-.72,2.63c.13.76,1.27.67,1.45,0a35.09,35.09,0,0,0,1-8.35c0-1-1.47-1-1.52,0q-.2,4.25-.4,8.48a.78.78,0,0,0,1.52.21c1.2-4.42.46-8.8-.43-13.2l-1.43.6c1.92,4,1.86,9,1.52,13.31-.06.81,1.08,1,1.46.39,2.58-4.23,1.5-10.43-.29-14.75L22,4.92c2.76,4.05,2.57,8.72,2.12,13.4-.09.95,1.26,1,1.55.21,2.06-5.4-.42-10.45-3.06-15.15l-1.25.73A16.69,16.69,0,0,1,23,17.34l1.37.38c1.06-3.72,1.74-7.51-.36-11C23.62,6,21.77,3.17,21,5c-.3.68.64,1.28,1,.6Z"/></g><g class="cls-7"><path class="cls-6" d="M22.57,7.23C25,11,24.42,14.84,23.1,18.85l1.35.37C26,13.85,27.18,7.56,22,3.83c-.61-.44-1.45.42-1,1a10.57,10.57,0,0,1,1.85,4.78c.12.86,1.54.65,1.51-.21-.14-4-3.89-9.34-8.42-7.29a.8.8,0,0,0,.19,1.45,29.21,29.21,0,0,1,5.23,1.83c.73.34,1.68-.62.94-1.21a8.55,8.55,0,0,0-9.89-.85A.86.86,0,0,0,12.76,5a3.64,3.64,0,0,0,2.62-.65c.63-.41.47-1.68-.43-1.57A10,10,0,0,0,7.63,7c-.64.89.82,1.72,1.46.86A8.08,8.08,0,0,1,15,4.41l-.42-1.57-1.77.41.43,1.58a7.07,7.07,0,0,1,8.09.59l.78-1.33a28.21,28.21,0,0,0-5.58-2l.19,1.45C20,2,22.64,6.79,22.74,9.43l1.51-.2a11.37,11.37,0,0,0-2-5.13l-1,1c4.57,3.25,3.19,9.16,1.91,13.72-.25.88,1,1.2,1.35.37,1.59-4.26,2.06-9-1-12.68-.41-.49-1.23.15-.88.69Z"/></g><g class="cls-7"><path class="cls-6" d="M7.62,6.45c-1.78,2.23-4,4.88-3.67,7.93.06.53.82.72,1,.14a20.87,20.87,0,0,1,3.68-7.3c.42-.58-.54-1.33-1-.77Z"/></g><g class="cls-7"><path class="cls-6" d="M5.82,17.91c.47,1.74,2.24,5.6,1.75,7.38l1-.42C6.89,23.92,6.29,19,6,17.25l-1.32.55c.45.82,3.13,6.22,1.92,7.05l1,.27a19.68,19.68,0,0,1-1.68-7l-1.44.39a13.21,13.21,0,0,1,1.33,6.89l1-.75c-1.28-.5-1.7-4.47-1.73-5.51l-1.46.39c.12.26.7,3.49,1.24,3A22.06,22.06,0,0,0,4.3,20c-.16-1-1.63-.55-1.47.41.19,1.19.39,2.37.6,3.56a.72.72,0,0,0,1.4-.19q3.24-2.38,2.83,0l1.13-.3V23.3L10,23l.32-.9-1.07-.28.05,1h1.24l-.2-.91.94.72.4-.42L11,21.21l-.49.7,1.07.28-.13.27-.94-.71-.91,1.09H8.49c1.21,2.75,1,3.55-.67,2.43L7,26.34c-.53.12-.82-.25-.88-1.1l-1,1.05c1.33.75,1,.3.3-.82-.48-.79-1-1.38-1.39-2.22l-1.1,1.1,0,.07,1.57-.21a10.91,10.91,0,0,1-.41-7.49H2.52l1.38,5,1.47-.62A5.92,5.92,0,0,1,4.91,16l-1.46.19.48.69c.93,1.6,1.26,1.75,1,.43a27.4,27.4,0,0,1,.27-3.41.76.76,0,0,0-1.47-.41c-.53,2-.86,4.65.22,6.53a.79.79,0,0,0,.69.4c2.67,0,1-4,.2-5a.81.81,0,0,0-1.46.19A7.52,7.52,0,0,0,4,21.93a.81.81,0,0,0,1.47-.62l-1.39-5a.8.8,0,0,0-1.54,0,12.45,12.45,0,0,0,.41,8.34c.31.77,1.62.76,1.57-.22A1.46,1.46,0,0,0,3.69,23c-.7-.53-1.41.46-1.09,1.1.55,1.12,2.71,5.17,4.63,4.12,1.71-.95-.55-2.76-1.39-3.22a.77.77,0,0,0-1,1.05c.66,1.21,2.73,3.7,4.25,2.29s-.38-2.86-1.65-3.37c-.67-.26-1,.57-.83,1.07.55,1.26,2.93,3.24,4.11,1.41,1-1.57-1.35-3.62-2.73-3.69a.74.74,0,0,0-.72.72c-.15,1.25,1.08,3,2.48,2.22,1.73-.93.65-3.5-.22-4.58a.63.63,0,0,0-1,.13,1.38,1.38,0,0,0,.61,2.1c1.49.57,2.31-1.16,2.62-2.23.14-.48-.48-1.06-.93-.71l-.22.16a.68.68,0,0,0-.3.72l.06.28a.64.64,0,0,0,1.06.28,1.8,1.8,0,0,0,.69-1,.64.64,0,0,0-.72-.93,1.41,1.41,0,0,0-1.29,1.31c-.09.51.43,1.05.94.72l.29-.19a.67.67,0,0,0,.3-.72l-.07-.38a.62.62,0,0,0-.45-.45A1.4,1.4,0,0,0,9.32,23.1a.65.65,0,0,0,1.24,0,2.06,2.06,0,0,0-.06-1.65.65.65,0,0,0-1.07-.28A1.79,1.79,0,0,0,8.8,23.3.63.63,0,0,0,10,23C9.3,19.89,6.13,21.44,7.74,24a.62.62,0,0,0,1.14-.31c.06-1.69-.44-4.28-2.75-4.07-2,.18-2.77,2.42-2.72,4.1H4.83c-.16-1.26-.34-2.52-.53-3.78l-1.47.41c.2,1.29.26,3.52,1.51,4.29a.78.78,0,0,0,.78,0c1.79-1.08.5-4.48-.14-5.89-.32-.72-1.48-.34-1.46.4.06,2.22.54,6.1,2.88,7a.79.79,0,0,0,1-.75,14.77,14.77,0,0,0-1.56-7.67.77.77,0,0,0-1.43.39,22.2,22.2,0,0,0,1.92,7.72.76.76,0,0,0,1,.27c2.47-1.74-.33-7.1-1.44-9.08-.42-.75-1.45-.21-1.31.56.41,2.29,1,7.16,3.28,8.43a.69.69,0,0,0,1-.41c.64-2.34-1.26-5.81-1.94-8a.59.59,0,0,0-1.13.31Z"/></g><g class="cls-7"><path class="cls-6" d="M19.32,25.35a7.37,7.37,0,0,1,.95-.62l-.49-.64a7,7,0,0,1-3.46,2.5c-.25.06-.42.25-.17,0a3.18,3.18,0,0,1,.79-.49,14.13,14.13,0,0,1,2.24-1l-.86-.85a3.11,3.11,0,0,1-1.16,1.45c-.12.08-.91.71-.93.44s1-1,1.26-1.17a4.55,4.55,0,0,1,.76-.39l.33-.12c.41-.09.46-.11.16-.05-.33.27-.76.63-1.13.92-.13.1-.56.29-.64.42s-.2.14.09.2.3.16.35-.08c.36-.27.65-1,1-1.39a9.85,9.85,0,0,1,1.24-1.18l-1.33-1c-.28.6-.92,2.5-1.58,2.7l.65.09c.08.19.11.13.11-.16a2.84,2.84,0,0,1,.15-.64,4.34,4.34,0,0,1,.73-1.29L17,22.13a4.12,4.12,0,0,1-1.2,2.16l1.39.37a1.47,1.47,0,0,1,.43-1.73l-1.4-.58a1.33,1.33,0,0,1-.63,1.09l1.2.49a1.48,1.48,0,0,1,.38-1.58L15.78,22l-.15.35,1.25.16-.29,0-1.08-.28.09.11.12-.95-.08.08L17,22l-.12.19c1-.23.54-1.64-.41-1.46a1.21,1.21,0,0,0-1,1.27.79.79,0,0,0,1.34.55l.08-.07a.79.79,0,0,0,.12-.95l-.07-.12a.82.82,0,0,0-1.09-.28c-.83.43-.69,1.5-.29,2.18a.81.81,0,0,0,1.25.17,1.91,1.91,0,0,0,.58-1.91A.81.81,0,0,0,16,21.22a3.1,3.1,0,0,0-.83,3.15.83.83,0,0,0,1.2.49,3,3,0,0,0,1.45-2.51.83.83,0,0,0-1.4-.58,3,3,0,0,0-.87,3.33.84.84,0,0,0,1.39.37,5.72,5.72,0,0,0,1.63-2.9c.17-.74-.83-1.5-1.4-.81-.78.95-2.36,3.6-.9,4.63,1.7,1.2,3-2.28,3.48-3.3a.85.85,0,0,0-1.33-1,8.07,8.07,0,0,0-2.71,3.51c-.26.91.21,2,1.29,1.87,1.47-.16,5.27-3.88,2.5-4.7C17.7,22.21,13.71,25,14.65,27c1.16,2.5,4.59-1.09,5-2.46.14-.47-.36-1-.85-.86-.83.33-6,2.55-3.91,3.92.84.57,2-.06,2.81-.48a7.53,7.53,0,0,0,2.71-2.58c.24-.38-.35-.86-.64-.49A8.79,8.79,0,0,1,19,25c-.23.22.1.53.34.34Z"/></g><g class="cls-7"><path class="cls-6" d="M10.85,22.88,10.93,24l.77-.2a1.26,1.26,0,0,1-.5-1.55l-1,.28a2.51,2.51,0,0,1,.75,2.79l1-.41a1,1,0,0,1-.53-1.26l-1,.43c.92.53.29,1.73-.06,2.4l1.19-.15c-.25-.37-.47-.33-.67.12l-.24.51c.46,0,.63-.24.53-.66,0-.61.06-.59.22.07-.29.57-.3.64,0,.23a.71.71,0,0,0,.16-.84c.19-.95.17-.35.32.12s.26,1.3-.09,1.59l.16-.38c-.24-.22-.39-.15-.45.2-.5.23.13.53-.43.16s-.51-1.33-.51-1.83l-1.25.71c.66.29.71.75.16,1.39l1,.13a1.87,1.87,0,0,1-.61-1.68l-1.25.72c.74.32-.15.68.18,1l.66-.26a1.65,1.65,0,0,1-.17-1.13l-1.22.49h.68a3,3,0,0,1-.29-.63,7.27,7.27,0,0,1-.33-1,.7.7,0,0,0-1.37.19c0,1.11.68,3.89,2.33,3.19,1.45-.61.82-2.49-.18-3.14A.83.83,0,0,0,7.55,26C7.39,27,8,30.28,9.7,29.11a2.31,2.31,0,0,0-.38-3.7.84.84,0,0,0-1.25.71A3.43,3.43,0,0,0,9.17,29a.83.83,0,0,0,1,.13A2.42,2.42,0,0,0,10,24.85a.84.84,0,0,0-1.25.72c0,1.5,1.31,5.1,3.33,3.4,1.31-1.1,2.11-4.33-.35-4.61s-2,3.22-.82,4.28c1.86,1.59,2.78-1.54,2.5-2.88-.16-.77-.63-1.89-1.46-2.15s-1.66.47-2,1.25c-.45,1.12.32,4.46,2.08,3.25,1.33-.92,1.26-3.83-.6-4.05S8.71,27,10.08,28.12c1.75,1.45,3.16-2.4,1.75-3.54a1.53,1.53,0,0,0-2.15.11c-.69.89,0,2.06.72,2.66a.77.77,0,0,0,1.19-.16c.73-1.46,1.22-3.44-.54-4.39a.71.71,0,0,0-1,.43,2.31,2.31,0,0,0,1.21,2.82.71.71,0,0,0,1-.41,3.74,3.74,0,0,0-1.19-4,.63.63,0,0,0-1,.27,2.44,2.44,0,0,0,1.13,2.85.57.57,0,0,0,.77-.2,2,2,0,0,0-.32-2.36c-.45-.5-1.14.22-.73.72Z"/></g><g class="cls-7"><path class="cls-6" d="M18.27,6.77l.85-.11-.31-.53a2.18,2.18,0,0,0-.1,2.13c.18.45.89.69,1.15.16.47-1,.62-3-1.07-2.81S17.63,8.27,18,9.25a.72.72,0,0,0,1.29.17,4.36,4.36,0,0,0-.05-4.23c-.45-.91-1.78-1.49-2.26-.25S17.17,8.53,18,9.53a1.36,1.36,0,0,0,2.49-.45,4.22,4.22,0,0,0-1-3.39c-.7-.73-2.25-1.2-2.64.09-.3,1,.28,3,1.31,3.45C19.58,9.84,19.9,8,19.82,7c-.13-1.3-1.28-2.66-2.7-2-1.72.74-.76,3.49-.34,4.76a.79.79,0,0,0,1.43.19c.64-1.3.68-3.26-.67-4.17s-2.6.32-2.63,1.67c0,.67.11,1.66.78,2a1.14,1.14,0,0,0,1.38-.29c.83-.93.6-3-.77-3.24-1.73-.35-1.85,2.15-1.58,3.25.37,1.48,1.88,1.18,2.43,0s0-2.75-1.51-2.59c-1.86.19-1.91,2.19-1.61,3.59a.78.78,0,0,0,1.42.19,2.66,2.66,0,0,0,.38-2.1.81.81,0,0,0-.75-.56c-1.21-.16-1.85,1.44-2.13,2.38a.78.78,0,0,0,1.51.42c0-.17.38-1.29.62-1.26l-.74-.57a1.14,1.14,0,0,1-.23.91l1.42.18c-.07-.3-.43-1.13.16-1.1l.67.39c-.21-.29-.07-.58-.13-.91.12-.28.08-.41-.14-.37s-.2.07.47.32l-.08-.63c.34-.29.52-.2.55.29a2,2,0,0,1-.18,1.41l1.44.19a11.69,11.69,0,0,1-.5-2c0-.18-.17-.65,0-.79s.35.76.46.88c-.06.28.08.32.42.13L18.5,7a5.3,5.3,0,0,0-.11-.86l-.28.39.29.23a9,9,0,0,1,.41.82,5,5,0,0,1,.14.65c0,.07.18.71.09.28-.14-.63-.46-1.31-.58-2,0-.07-.05-1.07-.06-1.08-.36-.1-.31.85-.29,1,.12.84.45,1.43-.06,2.24l1.29.17A3.94,3.94,0,0,1,19,7.44c0-1-.1,0-.29.49l1.15-.15a2.91,2.91,0,0,1-.39-1.47.36.36,0,0,0-.61-.26l-.68.37c-.21.08-.13.41.09.35Z"/></g><g class="cls-7"><path class="cls-6" d="M4.05,15.68c-1,2.35,0,4.81-.61,7.22H4.7a10.59,10.59,0,0,1,0-7.28l-1.4-.19a23.65,23.65,0,0,1-1.2,6.19H3.58c-.9-2.19.88-5.53,1.56-7.66a.77.77,0,0,0-1.4-.59,10.76,10.76,0,0,0,.2,11.12.7.7,0,0,0,1.2-.7,9.79,9.79,0,0,1-.07-9.65l-1.41-.59C2.85,16.05,1,19.4,2.1,22a.77.77,0,0,0,1.48,0,19.54,19.54,0,0,0,1.14-6.6.71.71,0,0,0-1.39-.19,11.53,11.53,0,0,0,.11,8c.21.55,1.11.69,1.26,0,.52-2.43-.53-4.93.31-7.29.22-.62-.72-.84-1-.27Z"/></g><g class="cls-8"><path class="cls-9" d="M7.19,3.8C5.48,5.4,3.52,7.37,2.67,9.59a.33.33,0,0,0,.55.32c.72-.83,1.26-1.8,1.91-2.68a34.07,34.07,0,0,1,2.52-3,.33.33,0,0,0-.46-.46Z"/></g><g class="cls-8"><path class="cls-9" d="M7.51,3.34c-2.84,2.27-6.16,6.08-6,10a.36.36,0,0,0,.67.19c.86-1.61,1.27-3.4,2.18-5A18.37,18.37,0,0,1,8.06,3.89c.38-.34-.17-.85-.55-.55Z"/></g><g class="cls-8"><path class="cls-9" d="M5.53,5.06A19.71,19.71,0,0,0,.35,19a.35.35,0,0,0,.69.09C2.78,14.38,2.68,9.71,6.1,5.63c.33-.39-.2-1-.57-.57Z"/></g><g class="cls-8"><path class="cls-9" d="M2,11.47c-1.4,3.26-2.28,7.71-.35,11,.16.26.63.17.61-.16-.28-3.77-1-6.83.31-10.55.11-.33-.43-.57-.57-.24Z"/></g><g class="cls-8"><path class="cls-9" d="M3.13,7.41c-2.29,4-2.59,8.44-2.19,13a.44.44,0,0,0,.87,0c0-4.3,0-8.65,1.93-12.61.19-.4-.38-.75-.61-.35Z"/></g><g class="cls-8"><path class="cls-9" d="M7.21,3.27c-1.37,1.05-3,2.39-3.62,4.07-.11.31.3.47.51.29A21.19,21.19,0,0,0,5.85,5.72a22.71,22.71,0,0,1,1.87-1.8c.36-.3-.13-.94-.51-.65Z"/></g><g class="cls-8"><path class="cls-9" d="M7.5,3.37C5.22,4.88,2.32,7.55,2,10.44a.22.22,0,0,0,.38.15c.9-1,1.45-2.33,2.31-3.41A19.07,19.07,0,0,1,7.89,4c.39-.29,0-1-.39-.67Z"/></g><g class="cls-8"><path class="cls-9" d="M4.53,27a15.73,15.73,0,0,1-2.32-5C1.77,20,2,18.06,1.78,16.11a.39.39,0,0,0-.78,0c-.09,4.08.18,8.06,3.11,11.16A.27.27,0,0,0,4.53,27Z"/></g><g class="cls-8"><path class="cls-9" d="M3.25,24.85c-1.56-3.6-1.69-6.92-1.37-10.76,0-.38-.55-.43-.66-.09a15.15,15.15,0,0,0,1.4,11.22c.22.42.8.05.63-.37Z"/></g><g class="cls-8"><path class="cls-9" d="M2.26,23.26A15.92,15.92,0,0,1,1.41,17,.25.25,0,0,0,.92,17a10.53,10.53,0,0,0,.8,6.54c.14.3.66.09.54-.23Z"/></g><g class="cls-8"><path class="cls-9" d="M25.59,6.53c-3.77-8.24-16.41-7-20.22.7-.44.88.86,1.66,1.33.78a11.16,11.16,0,0,1,7.83-5.95c4.6-.77,8,1,10.58,4.75a.28.28,0,0,0,.48-.28Z"/></g><g class="cls-8"><path class="cls-9" d="M3.9,10.69C1.19,14,1,18.28,2,22.4s3.73,6.31,7.72,7.8,7.44.34,11-1.88c3.18-2,4.2-3.84,5.71-7.23a.49.49,0,0,0-.84-.49c-2.71,4.22-5.46,8-11,8.66C4,30.45,1.39,18.71,4.28,10.91c.08-.2-.24-.39-.38-.22Z"/></g><path class="cls-10" d="M25.18,22.45c3.27-7.1,2.65-18.89-6.55-20.85C10.27-.18,4,7.46,2.2,14.84c-1.25,5.28.19,13,6,15,6.84,2.35,13.75-1.41,17-7.4a.09.09,0,0,0-.15-.09C19.5,32.66,3.23,33.73,2,20,1.38,12.49,6.41,3,14.36,1.71,26.08-.23,28.79,13.79,25,22.36,25,22.46,25.13,22.55,25.18,22.45Z"/><path class="cls-10" d="M15.89,12.22A7.5,7.5,0,0,1,15.43,14a2.5,2.5,0,0,1-.42.85l-.72.27a.82.82,0,0,1-.47-.38,2.73,2.73,0,0,1-.27-.47c0-.06-.13,0-.11,0,.19.58.79,1.34,1.47.9A2.52,2.52,0,0,0,15.6,14,6.67,6.67,0,0,0,16,12.23c0-.08-.13-.1-.14,0Z"/><path class="cls-10" d="M15.83,11.33A1.22,1.22,0,0,0,14,10.92a2.86,2.86,0,0,0-.89,2.77.05.05,0,0,0,.1,0,4.42,4.42,0,0,1,.46-2.18,1.17,1.17,0,0,1,2-.12c0,.07.14,0,.11-.06Z"/><path class="cls-10" d="M12.05,12.13a6.65,6.65,0,0,1,.34,1.13c0,.05.07.22,0,.26l-.33.18L12,13.6a2.2,2.2,0,0,1-.32-.56s-.11,0-.09,0c.07.24.5,1.3.88.86.15-.18.07-.45,0-.65a5.8,5.8,0,0,0-.39-1.2s-.11,0-.09,0Z"/><path class="cls-10" d="M12.61,10.1a2.76,2.76,0,0,1,0,.81c-.05.24-.15.45-.22.69a0,0,0,0,0,.08,0,2.33,2.33,0,0,0,.31-1.53c0-.08-.13-.08-.12,0Z"/><path class="cls-10" d="M10.43,12.94a3,3,0,0,0,0,.42c0,.06.1,0,.1,0a2.81,2.81,0,0,0,0-.41.07.07,0,0,0-.13,0Z"/><path class="cls-10" d="M12.51,14.61c.29.44.78,1.4,0,1.65a2,2,0,0,1-1.64-.57.07.07,0,0,0-.1.11c.43.47,1.42,1,2,.53S13,15,12.65,14.52a.08.08,0,0,0-.14.09Z"/><path class="cls-10" d="M11.05,14.4a.57.57,0,0,0-.65.51c0,.06.09.09.11,0a.52.52,0,0,1,.51-.36.09.09,0,1,0,0-.18Z"/><path class="cls-10" d="M14.86,20.78a3.17,3.17,0,0,0,.62-2.61,1.71,1.71,0,0,0-1.13-1.44c-1.95-.4-2.16,2.48-1.58,3.64,0,.06.15,0,.12-.05a3.42,3.42,0,0,1-.2-2.07c.22-.81.88-1.61,1.79-1.23,1.38.58,1,2.73.24,3.68-.06.08.08.16.14.08Z"/><path class="cls-10" d="M18.86,16.08a3.52,3.52,0,0,1-1.38.66A1.34,1.34,0,0,1,15.94,16c-.36-1.3,1.59-1.5,2.38-1.79a.08.08,0,1,0,0-.15c-.92.16-3.1.72-2.45,2.13s2.24.66,3.1.06c.07-.05,0-.17-.07-.12Z"/><path class="cls-10" d="M19.74,14.09a.79.79,0,0,1-.1.89c0,.06.05.12.09.08A.82.82,0,0,0,19.86,14c0-.08-.17,0-.12.08Z"/><path class="cls-10" d="M17.82,17.71a2.21,2.21,0,0,1,.55,2.09c-.15.52-.56.38-.89.15a1.75,1.75,0,0,1-.7-1c0-.06-.11-.05-.1,0a1.42,1.42,0,0,0,.63,1c.25.2.66.6,1,.32A1.67,1.67,0,0,0,18.57,19a2.31,2.31,0,0,0-.66-1.35.06.06,0,0,0-.09.09Z"/><path class="cls-10" d="M17.1,17.7a.65.65,0,0,0-.55.34.06.06,0,0,0,.09.07.62.62,0,0,1,.46-.27c.09,0,.09-.15,0-.14Z"/><path class="cls-10" d="M10.55,20a1.48,1.48,0,0,0,1.52-.76,1.19,1.19,0,0,0-.2-1.31c-.68-.75-2.36-.31-2.38.77,0,0,0,.05.06,0A1.42,1.42,0,0,1,11.66,18a1,1,0,0,1,.2,1.32,1.36,1.36,0,0,1-1.31.56.08.08,0,0,0,0,.16Z"/><path class="cls-10" d="M9.4,19.31a2.49,2.49,0,0,0,.09.37c0,.06.12.06.12,0a1.75,1.75,0,0,0,0-.4c0-.11-.18-.06-.16,0Z"/><path class="cls-10" d="M18.12,12.52a3.05,3.05,0,0,1-.71.68c-.21.15-.49.4-.74.32s-.23-.11-.14-.31a1.08,1.08,0,0,1,.22-.35c.08-.09.18-.17.26-.26l.66-.66c.07-.07,0-.18-.12-.11-.32.3-1.68,1.31-1.05,1.88.23.21.6-.14.79-.26a3.38,3.38,0,0,0,.95-.86c.05-.07-.07-.14-.12-.07Z"/><path class="cls-10" d="M16,18.94c0,.2.05.4.08.6s.13.06.13,0,0-.38-.05-.58-.17-.1-.16,0Z"/><path class="cls-10" d="M11.84,20.4c-.07.15-.14.29-.19.43s.1.14.15.07a3.73,3.73,0,0,0,.2-.4c.06-.11-.11-.21-.16-.1Z"/><path class="cls-10" d="M19.64,17.13c-.46.11-.94.14-1.39.25a.06.06,0,0,0,0,.11,4.89,4.89,0,0,0,1.42-.22c.09,0,.05-.17,0-.14Z"/><path class="cls-10" d="M11.43,17.19a2.75,2.75,0,0,0-.69-.15.07.07,0,0,0,0,.13,3.1,3.1,0,0,0,.68.18c.1,0,.15-.14,0-.16Z"/><path class="cls-10" d="M16.63,11.08c-.06.2-.13.4-.18.61s.11.13.15,0,.14-.4.2-.6-.13-.16-.17-.05Z"/><path class="cls-10" d="M8.3,1.94C.11,7.06-3.44,21.14,4.3,28.18A13.4,13.4,0,0,0,20,29.73c7.55-4.52,10.31-16.53,5.93-24C22.16-.73,14.53-1.3,8.28,1.89c-.15.08,0,.29.12.22C14.62-.87,22-.44,25.66,5.86c4.31,7.34,1.6,19.19-5.8,23.64A13.41,13.41,0,0,1,9.37,30.78C-3.66,27-1.14,8.29,8.38,2.07,8.46,2,8.39,1.88,8.3,1.94Z"/><path class="cls-11" d="M20.81,1.28c6.48-4.18,19.3,4.16,20.64,14.59s-7.61,17.74-16.21,15S5.39,11.22,20.81,1.28Z"/><path class="cls-12" d="M21.7,1.69c6.45-4,18.9,5.65,19.13,14.58.26,10.11-7,16.16-15.27,13.53S9.33,9.35,21.7,1.69Z"/><path class="cls-4" d="M24.38,12.12c.95-2.12,4.28,3.45,2.61,3.2S23.52,14,24.38,12.12Z"/><path class="cls-4" d="M30.12,10.67c1.38-.18,1.34,3.86-.59,4.36S28.66,10.87,30.12,10.67Z"/><path class="cls-4" d="M28.55,16.82c.9-1,4,1.44,2.7,2.75S27.21,18.27,28.55,16.82Z"/><path class="cls-4" d="M25.94,16.15a1.17,1.17,0,0,1-.19,2.32C23.94,18.68,23.62,16,25.94,16.15Z"/><path class="cls-4" d="M31,15.18c.61-1.89,3.23.43,2.28,1S30.57,16.53,31,15.18Z"/><path class="cls-4" d="M27.76,19.71c1.21-.12.3,2.37-.62,2.12S25.6,19.94,27.76,19.71Z"/><path class="cls-4" d="M27.55,12.78c.8-1.44.55-3-.31-3S27.55,12.78,27.55,12.78Z"/><path class="cls-4" d="M25.36,15.47c-1.43-.49-2.65-1.11-2.76-.71s.19.91,1.14,1A3.6,3.6,0,0,0,25.36,15.47Z"/><g class="cls-5"><path class="cls-6" d="M18.27,10.2c-1.54,3.08.33,6.84,2.32,9.27l1.11-1.12A18.76,18.76,0,0,1,18.47,12,.79.79,0,0,0,17,11.82c-1.94,2.72,1.35,6.84,3,8.75.63.72,1.66-.2,1.26-1-.92-1.82-1.41-5.74-3.66-6.43a.78.78,0,0,0-.84.34c-1.92,2.73,2.72,7.77,4.59,9.46A.79.79,0,0,0,22.64,22,20.21,20.21,0,0,0,18,16a.78.78,0,0,0-1.29.34c-.55,2.27,2.2,7.84,4.95,7.29a.79.79,0,0,0,.47-1.15,19.46,19.46,0,0,0-3.75-4.25c-.4-.35-1.21-.29-1.31.34C16.57,21.36,19.78,24,22,25.24a.74.74,0,0,0,1-1,6.56,6.56,0,0,0-3.07-3.37c-.53-.29-1.34.2-1.11.84A8.25,8.25,0,0,0,23,26.47c.89.45,1.68-.88.79-1.35a7,7,0,0,1-3.52-3.8l-1.1.84a4.4,4.4,0,0,1,2.49,2.64L22.69,24c-1.2-.81-4.45-3.14-4.14-5l-1.31.35a18.2,18.2,0,0,1,3.5,3.93l.47-1.15c-1.23.25-3.25-4.51-3-5.37l-1.29.34a18.56,18.56,0,0,1,4.41,5.73l1.23-.95a19.76,19.76,0,0,1-3.94-5.24c-.59-1-.52-1,0,.39.42,1.07.88,2.11,1.23,3.21l1.35-.78c-1.06-1.31-4.16-4.88-2.81-6.82L17,12.42a23,23,0,0,0,3.63,7c.56.68,1.78-.24,1.24-1-1.44-1.91-3.37-5.12-2.32-7.59.35-.82-.82-1.56-1.24-.72Z"/></g><g class="cls-5"><path class="cls-6" d="M39.71,20.79A12.71,12.71,0,0,0,37.1,9.34c-.53-.66-1.47.18-1.12.86a15.42,15.42,0,0,1,1.69,10.49l1.46.19A17.45,17.45,0,0,0,35,8.74L33.93,9.81c2.47,2.59,3.23,6,3.9,9.38.16.82,1.45.62,1.44-.2-.06-5-1.13-9.89-5.46-12.89-.69-.48-1.44.56-.87,1.14a16.2,16.2,0,0,1,4.47,8.88c.14.78,1.47.61,1.39-.19A14.92,14.92,0,0,0,31.5,4.08l-.59,1.39c3.69.93,5.42,5.78,6.32,9l1.31-.36A20.7,20.7,0,0,0,30.75,3.49l-.57,1.36c4.73,1.33,8,7.63,8.42,12.18l1.52-.21a19.57,19.57,0,0,0-10.56-13c-.9-.43-1.69.88-.79,1.34a18.43,18.43,0,0,1,9.86,12.11c.21.82,1.61.68,1.51-.2-.55-5.33-4-12.09-9.56-13.61A.75.75,0,0,0,30,4.78a18.45,18.45,0,0,1,7.23,9.69.68.68,0,0,0,1.31-.36c-.73-3.86-3-9-7.23-10.1a.76.76,0,0,0-.58,1.38,13.48,13.48,0,0,1,6.66,10.54l1.39-.18A17.19,17.19,0,0,0,34,6.21l-.88,1.14C37,10.05,37.75,14.56,37.8,19l1.44-.19c-.71-3.71-1.58-7.25-4.24-10.06-.68-.71-1.68.33-1.07,1.07a16,16,0,0,1,3.72,11.07.74.74,0,0,0,1.45.2,16.63,16.63,0,0,0-1.89-11.6l-1.12.87a11.76,11.76,0,0,1,2.62,10.16c-.13.65.84.94,1,.28Z"/></g><g class="cls-7"><path class="cls-6" d="M25.57,3.19c.18.58,2.53.78,3,1A8.22,8.22,0,0,1,31.4,5.91a23.54,23.54,0,0,1,3.38,4.59c.48.77,1.7.06,1.22-.72A18.5,18.5,0,0,0,24.38,1.22.73.73,0,0,0,24,2.62c4.76,1.26,9.88,2.76,12.08,7.62l1.24-1C34.09,5.55,30.52,2,25.43,1.19A.79.79,0,0,0,25,2.71c3.86,1.44,8.81,4.67,10,8.93l1.32-.77c-3.06-3.42-6.92-7.08-11.4-8.46a.79.79,0,0,0-.61,1.43c3.58,2.25,7,4.55,9.3,8.21l1.21-.93c-2-2-3.92-4.09-5.89-6.13L27.83,6.07a31.84,31.84,0,0,1,5.1,6.18l1-1-.63-1-1.28.53A6.21,6.21,0,0,1,34,14.08l1.24-.72a7.16,7.16,0,0,1-1.43-2.71.74.74,0,0,0-1.42.39l.39,1.42.71-.93.21.15c-.52-.78-1.78,0-1.26.74a1,1,0,0,0,1,.57.73.73,0,0,0,.7-.92l-.38-1.42L32.34,11a9,9,0,0,0,1.8,3.37c.51.61,1.39-.06,1.24-.72a7.52,7.52,0,0,0-2.27-4c-.43-.41-1.34-.15-1.28.53a2.66,2.66,0,0,0,1.37,2.34c.64.43,1.4-.41,1-1A33.51,33.51,0,0,0,28.9,5c-.68-.7-1.75.37-1.07,1.08q2.94,3.06,5.87,6.14a.78.78,0,0,0,1.21-.94c-2.28-3.93-6.07-6.42-9.83-8.79l-.61,1.44c4.22,1.3,7.84,4.84,10.71,8.06.53.61,1.5,0,1.31-.76-1.3-4.84-6.63-8.38-11.06-10L25,2.71c4.84.74,8.12,4.15,11.18,7.69.63.73,1.58-.2,1.24-1-2.38-5.22-7.91-6.92-13.06-8.22L24,2.62A16.46,16.46,0,0,1,34.78,10.5L36,9.78C34.39,7,32.48,4.12,29.37,2.91c-.62-.24-5.94-1.75-4.95.6.29.68,1.38.44,1.15-.32Z"/></g><g class="cls-7"><path class="cls-6" d="M27.11,3.87c4.4.85,6.77,3.84,8.8,7.62l1.21-.7C34.28,5.91,30.57.83,24.25,2a.76.76,0,0,0,0,1.45,10.75,10.75,0,0,1,4.74,2c.71.51,1.58-.63.93-1.2-3-2.68-9.46-3.66-11.09,1a.8.8,0,0,0,1.16.9,28.41,28.41,0,0,1,4.94-2.53.77.77,0,0,0-.42-1.49,8.54,8.54,0,0,0-7.23,6.52.86.86,0,0,0,1.42.83A3.52,3.52,0,0,0,20,7.09a.85.85,0,0,0-1.54-.65,10,10,0,0,0-1.84,8.08c.19,1.07,1.81.62,1.63-.45A8.28,8.28,0,0,1,20,7.29l-1.54-.65L17.5,8.22l1.42.83a7.17,7.17,0,0,1,6-5.49l-.42-1.49a28.39,28.39,0,0,0-5.32,2.65l1.17.89c1.22-3.53,6.53-2.07,8.47-.36l.93-1.2A11.39,11.39,0,0,0,24.65,2V3.42c5.55-1,8.82,4,11.26,8.07a.7.7,0,0,0,1.21-.7c-2-4.1-5-7.69-9.86-8a.57.57,0,0,0-.15,1.11Z"/></g><g class="cls-7"><path class="cls-6" d="M16.29,14.31c.38,2.86.81,6.2,3.28,8,.41.31.93-.28.68-.68A21.1,21.1,0,0,1,17.5,14c-.14-.81-1.32-.45-1.21.33Z"/></g><g class="cls-7"><path class="cls-6" d="M23.3,23.35l3.43,1.87c.93.5,2.56,1,3.13,2l.42-1c-1.91.58-5.74-2.32-7.3-3.37l-.56,1.32c.81.21,6.69,2,6.47,3.45l.92-.53a19.16,19.16,0,0,1-6.21-3.57l-.75,1.28a13.12,13.12,0,0,1,5.92,3.78l.16-1.22c-1.32.62-4.32-1.73-5.18-2.53L23,26.09a6.55,6.55,0,0,1,1.84.85c.53,1,.9,1.18,1.12.59-.07-.56-1.51-1.18-2.16-1.62-.81-.56-1.57.76-.77,1.31,1,.69,2,1.36,3,2,.67.43,1.48-.59.86-1.12-1.8-1.5-1.87-2.37-.19-2.6q1.27-1,2.1.51l.59-1-.12-.11.64-1.09L29.45,23l-1,.56.76.63.88-.88-.82-.52,1.17-.16-.05-.56h-1.1l.11.67,1-.55.1.13-1.18.32.17,1.43-.61.8,1.14,1v1c1.43-.43,1.45-.38,0,.16l.17,1.33c-.22.48-.68.44-1.37-.12v1.48c1.15-.35,1.25-.38,0-.74-.93-.27-2-.26-2.91-.56v1.55L26,30l.77-1.34a10.6,10.6,0,0,1-5.53-4.79l-1.1,1.1,4.58,2.45.62-1.46a6,6,0,0,1-4.05-3.21l-.9,1.18c.58.09,1.16.17,1.74.23,1.31.3,1.24.05-.22-.74A11.08,11.08,0,0,1,20,21.06c-.54-.81-1.84-.07-1.33.78,1.07,1.75,2.78,3.82,4.87,4.34a.81.81,0,0,0,.78-.21c1.83-1.93-2.14-3.43-3.47-3.62a.81.81,0,0,0-.91,1.17,7.4,7.4,0,0,0,5,3.94A.8.8,0,0,0,25.55,26L21,23.54a.81.81,0,0,0-1.1,1.1,12.62,12.62,0,0,0,6.5,5.52c.74.29,1.36-.83.78-1.33a1.5,1.5,0,0,0-1.63-.44c-.83.13-.69,1.33,0,1.55,1.29.4,5.59,1.61,6.2-.48.55-1.91-2.36-1.54-3.27-1.25a.78.78,0,0,0,0,1.48c1.31.35,4.18.62,4.6-1.21.52-2.31-2.35-2-3.56-1.41-.6.28-.37,1.16.18,1.33,1.3.41,4.52.13,3.85-2.08C33,24.61,30,24.85,29,25.83a.73.73,0,0,0,0,1c.79,1,3,1.31,3.36-.31.4-1.86-2.13-2.87-3.49-2.94a.64.64,0,0,0-.61.8,1.39,1.39,0,0,0,1.94,1c1.42-.67.77-2.45.21-3.42a.64.64,0,0,0-1.19.32l0,.28a.63.63,0,0,0,.32.55l.23.14a.64.64,0,0,0,1-.55,2.39,2.39,0,0,0-.28-1.31c-.2-.47-.87-.36-1.1,0a1.41,1.41,0,0,0,.05,1.85c.29.39,1.05.44,1.17-.15l.06-.34a.67.67,0,0,0-.29-.73L30,21.83a.63.63,0,0,0-.65,0,1.4,1.4,0,0,0,.14,2.57c.53.27,1.26-.31.88-.88a2,2,0,0,0-1.23-1.09.65.65,0,0,0-1,.55,1.79,1.79,0,0,0,1.09,1.93.63.63,0,0,0,.64-1.09c-2.77-1.62-3.8,1.76-.84,2.37a.61.61,0,0,0,.59-1c-1.16-1.2-3.1-2.49-4.63-1s-.46,3.81.86,5L26.74,28c-1-.71-2-1.41-2.95-2.1L23,27.22c1.07.74,2.75,2.26,4.16,1.88a.75.75,0,0,0,.55-.54c.46-2-2.86-3.48-4.33-4a.79.79,0,0,0-.76,1.31c1.57,1.44,4.88,3.8,7.07,2.77a.79.79,0,0,0,.16-1.23,14.63,14.63,0,0,0-6.61-4.16c-.71-.22-1.35.78-.75,1.28a21.63,21.63,0,0,0,6.9,3.94.75.75,0,0,0,.92-.52c.45-3-5.3-4.68-7.52-5.24A.72.72,0,0,0,22.25,24c1.91,1.26,5.94,4.22,8.39,3.46a.69.69,0,0,0,.41-1c-1.24-2-5.1-3.11-7.16-4.14-.66-.34-1.25.64-.59,1Z"/></g><g class="cls-7"><path class="cls-6" d="M38,18.73a7.11,7.11,0,0,1,.2-1.12l-.8-.1a7,7,0,0,1-.55,4.19c-.46.83,0-.4,0-.68a13.8,13.8,0,0,1,.81-2.37H36.5a3.76,3.76,0,0,1,.15,2.52c-.07.29,0,.77-.21.31a3.22,3.22,0,0,1-.07-1.2,4.79,4.79,0,0,1,.26-1.18l.2-.46c.23-.42.22-.42,0,0,0,.33,0,.66,0,1a4,4,0,0,1-.1.77c-.13.41-.15.51,0,.3l.64.08c-.47-.27-.57-1.58-.61-2a8.57,8.57,0,0,1,0-1.68L35,17.32c.22.53,1.24,2.5.86,3l.5-.39c.29.07.25-.05-.13-.35a4.83,4.83,0,0,1-.26-.45,4.29,4.29,0,0,1-.41-1.36L34,18.21a4.07,4.07,0,0,1,.75,2.34L36,19.83a1.46,1.46,0,0,1-1-1.49l-1.4.58a1.33,1.33,0,0,1,.38,1.2l1.2-.49a1.49,1.49,0,0,1-.91-1.37l-1.21.7.18.34,1-.76-.25.21-.55.55h.09l-.76-.2.07.07-.2-.77,0,.07L34,18.12l0,.23c.49-.69-.66-1.6-1.19-.92a1.23,1.23,0,0,0,.05,1.8.8.8,0,0,0,1.31-.35l0-.07a.75.75,0,0,0-.2-.76.87.87,0,0,0-.72-.3.82.82,0,0,0-.76.58c-.27.9.55,1.56,1.34,1.74a.8.8,0,0,0,1-.77,1.89,1.89,0,0,0-1-1.73.8.8,0,0,0-1.21.69A3.11,3.11,0,0,0,34.41,21a.83.83,0,0,0,1.2-.49,3,3,0,0,0-.79-2.79.83.83,0,0,0-1.41.58,3,3,0,0,0,1.79,2.93.84.84,0,0,0,1.25-.72,5.77,5.77,0,0,0-1-3.19c-.41-.62-1.67-.47-1.56.43.15,1.23,1,4.19,2.72,3.86,2.06-.39.44-3.78,0-4.78a.85.85,0,0,0-1.67.22c-.09,1.39-.06,3.35.77,4.54a1.3,1.3,0,0,0,2.31,0,5.48,5.48,0,0,0,.11-4,1.36,1.36,0,0,0-2.32-.45c-1.11,1.19-2,5.73.3,6.22,2.52.52,2.21-4.15,1.52-5.38a.7.7,0,0,0-1.27.16c-.31.77-2.21,6.11.27,5.37,1-.28,1.33-1.59,1.54-2.43a7.64,7.64,0,0,0,0-3.65c-.13-.52-.86-.29-.79.21a7,7,0,0,1,.11,1.12c0,.31.45.3.48,0Z"/></g><g class="cls-7"><path class="cls-6" d="M30.38,23.15l.84.67.39-.69a1.23,1.23,0,0,1-1.47-.69l-.53.93a2.54,2.54,0,0,1,2.55,1.38l.41-1a1,1,0,0,1-1.29-.48l-.42,1.05c1-.3,1.45.95,1.71,1.68l.73-.95c-.35-.09-.51.05-.49.39a4.23,4.23,0,0,1,.3.69l.38-.41a1.42,1.42,0,0,1-.72-.6c.31-.08.49,0,.52.31s.19.32.19-.27c-.16-.32-1.19-.53-.76-1.16l-.49.37c.59-.21,1.35.36,1.69.79a1.44,1.44,0,0,1,.31.52l.1-.29c-.34-.14-.67-.29-1-.45l0-.14a.89.89,0,0,1,.41.54c.06.14.28.64.22.79.12.16.06.19-.19.09a2,2,0,0,1-.6-.13,3.15,3.15,0,0,1-1.14-.77l-.36,1.39c.6-.21,1.26.06,1.12.81l.8-.61a1.85,1.85,0,0,1-1.64-.7l-.37,1.39c.15-.06.9.25.87.42l.38-.49c-.26.17-.94-.53-1.06-.68l-.49,1.22.36.14.24-.58-.15.18.59-.24a3.83,3.83,0,0,1-2.18-.69.7.7,0,0,0-.84,1.1c.76.8,3.12,2.14,3.88.65s-1.15-2.44-2.34-2.16a.84.84,0,0,0-.5,1.22c.63.84,3.08,2.54,3.7.77.53-1.49-1.61-3-2.9-2.46a.84.84,0,0,0-.36,1.39,3.39,3.39,0,0,0,2.81,1.18.84.84,0,0,0,.8-.61,2.42,2.42,0,0,0-3.17-2.86.84.84,0,0,0-.36,1.39c1,1,4.66,2.61,4.79,0,.08-1.63-1.34-4.19-3.28-3.16a1.62,1.62,0,0,0-.71,2.09A3,3,0,0,0,34,27a1.51,1.51,0,0,0,1.83-.81A2.57,2.57,0,0,0,35,23.83c-1.1-1.11-4.2-2-3.94.55.15,1.38,2.74,3.68,3.86,1.92.45-.71-.16-1.87-.63-2.4a2,2,0,0,0-2.34-.56c-1.93,1-.23,3.74,1.4,3.95,2.42.32,1.16-3.41-.52-3.68A1.66,1.66,0,0,0,30.86,25c0,1.24,1.46,1.64,2.44,1.52.44-.06.91-.45.72-1-.55-1.54-1.64-3.28-3.54-2.65a.71.71,0,0,0-.42,1,2.3,2.3,0,0,0,2.87,1.08.7.7,0,0,0,.41-1,3.72,3.72,0,0,0-3.73-1.93.63.63,0,0,0-.54.94,2.42,2.42,0,0,0,2.84,1.15.57.57,0,0,0,.39-.69,2,2,0,0,0-1.92-1.41c-.67,0-.65,1,0,1Z"/></g><g class="cls-7"><path class="cls-6" d="M23.83,6.67,24.34,6l-.6-.16a2.3,2.3,0,0,0,1.61,1.6.62.62,0,0,0,.77-.77c-.36-1-1.5-2.38-2.64-1.31-1.3,1.24.95,2.79,1.93,3.22a.71.71,0,0,0,1-.79A4.27,4.27,0,0,0,23.55,5c-.89-.33-2.35-.12-2,1.17.42,1.66,5.85,4.18,5.78,1.29-.06-2.7-6.19-3.13-5.22-.61.4,1,2.4,2.06,3.45,1.62,1.47-.62.19-2.25-.6-2.83-1-.74-2.85-.7-3.25.78-.47,1.71,2.07,2.83,3.24,3.39.55.27,1.41-.18,1.15-.88A3.34,3.34,0,0,0,22.8,6.49c-1.63.17-1.83,2-.81,3,.77.78,2.84,1.5,2.75-.33C24.68,8,23,6.71,21.87,7.5c-1.46,1,.28,2.85,1.27,3.41,1.39.78,2.14-.68,1.6-1.88s-2.07-1.75-2.93-.54c-1,1.47.32,2.83,1.52,3.56a.78.78,0,0,0,1.14-.87,2.68,2.68,0,0,0-1.24-1.72.8.8,0,0,0-.93.12c-1,.79-.25,2.33.23,3.2A.79.79,0,0,0,23.89,12c-.06-.11-.66-1.18-.5-1.31l-.94.12.53.79,1.13-.88c-.42-.26-.82-.35-.72-.85q.62-.48,0-.78c-.12-.27-.24-.32-.38-.17q-.46.31.57-.09c-.62-.24-.7-.4-.24-.5s1,.47,1.2,1l1.15-.89a13.28,13.28,0,0,1-1.72-1c-.29-.2-1.07-.51-.26-.5.31,0,.91.16.88.66L25,6.94a2.75,2.75,0,0,1-1.06-.34c-.29,0-.12,0,.49.09L25,7l.38.17c-.4-.18-.8-.29-1.19-.51s-.57-.47-.88-.63q-.42-.62-.33,0c-.11.26,0,.41.25.43.72.67,1.56.53,1.86,1.7L26,7.29c-.2-.08-1.16-.72-1.18-.71s.13.39.2.56l.72-.92a3.09,3.09,0,0,1-1.35-.74.36.36,0,0,0-.61.26l-.21.75c-.09.21.2.39.31.18Z"/></g><g class="cls-7"><path class="cls-6" d="M20.44,23c1,2.43,3.55,3.36,4.85,5.53l.89-.89a10.32,10.32,0,0,1-5.29-5l-1.11.86a24.2,24.2,0,0,1,3.66,5.15l.87-1.14c-1.23-.41-1.79-1.7-2.37-2.77L20,21.14a.78.78,0,0,0-1.41.6,10.7,10.7,0,0,0,8.18,7.52c.86.16,1.24-1.11.36-1.34a9.73,9.73,0,0,1-7-6.59l-1.41.59c1.27,2.35,2.46,6.11,5.23,7,.68.23,1.16-.57.87-1.13a18.17,18.17,0,0,0-4-5.37.71.71,0,0,0-1.11.86,11.44,11.44,0,0,0,6,5.49c.53.22,1-.51.73-1-1.33-2.1-4-3-5.07-5.25-.23-.51-1.11-.15-.9.38Z"/></g><g class="cls-8"><path class="cls-9" d="M14.05,12.64a17.94,17.94,0,0,0,1.07,7.27c.13.29.66.15.62-.17-.3-2.39-.93-4.67-1-7.1a.33.33,0,0,0-.65,0Z"/></g><g class="cls-8"><path class="cls-9" d="M13.94,12.09c-.32,3.72.18,8.53,3,11.26.24.24.73,0,.6-.35C17,21.3,16,19.78,15.49,18a18.45,18.45,0,0,1-.78-5.95c0-.5-.73-.49-.77,0Z"/></g><g class="cls-8"><path class="cls-9" d="M13.81,14.71a19.81,19.81,0,0,0,6.52,13.37.35.35,0,0,0,.55-.43c-2.21-4.52-5.64-7.62-6.26-12.94-.06-.5-.83-.53-.81,0Z"/></g><g class="cls-8"><path class="cls-9" d="M16,21.71c1.27,3,4.09,7.31,7.68,7.81.29,0,.58-.3.32-.55-1.25-1.17-2.86-1.9-4.12-3.09a15.71,15.71,0,0,1-3.31-4.41c-.16-.31-.71-.08-.57.24Z"/></g><g class="cls-8"><path class="cls-9" d="M13.86,18.07c1.28,4.41,4.34,7.72,7.87,10.52.43.34,1-.22.61-.62-3.1-2.94-6.29-6-7.81-10.08-.15-.42-.8-.26-.67.18Z"/></g><g class="cls-8"><path class="cls-9" d="M13.67,12.36a10.78,10.78,0,0,0,.42,5.26c.13.3.6.29.6-.08,0-1.74-.29-3.44-.19-5.18,0-.54-.78-.52-.83,0Z"/></g><g class="cls-8"><path class="cls-9" d="M14,12.11c-.48,2.78-.49,6.46,1.28,8.83a.23.23,0,0,0,.41-.17c-.21-1.51-.77-2.93-.94-4.46a20.7,20.7,0,0,1,0-4.09c0-.43-.68-.54-.76-.11Z"/></g><g class="cls-8"><path class="cls-9" d="M29,30.54a15.11,15.11,0,0,1-5.6-2c-1.56-1-2.76-2.42-4.23-3.54-.36-.27-.77.31-.47.61,2.88,2.88,6,5.44,10.23,5.45.29,0,.37-.46.07-.52Z"/></g><g class="cls-8"><path class="cls-9" d="M26.59,30c-3.71-1.34-6.14-3.57-8.75-6.42-.26-.29-.69.08-.52.4,1.73,3.34,5.54,5.75,9.08,6.72.45.13.62-.54.19-.7Z"/></g><g class="cls-8"><path class="cls-9" d="M24.76,29.64A15.85,15.85,0,0,1,19.64,26a.25.25,0,0,0-.39.31,10.32,10.32,0,0,0,5.28,3.92c.31.11.53-.41.23-.54Z"/></g><g class="cls-8"><path class="cls-9" d="M28.72,1.2c-8.57-2.95-16.4,7-13.45,15.12.34.92,1.8.55,1.49-.41-1.08-3.33-.91-7.59,1.44-10.41C21,2.14,24.29,1.09,28.57,1.74a.28.28,0,0,0,.15-.54Z"/></g><g class="cls-8"><path class="cls-9" d="M16.77,19.78c.48,3.86,2.83,6.6,6,8.75,4.05,2.74,7.57,2.67,12,.56,4-1.9,5.49-5.12,6.34-9.3.75-3.65.11-5.76-1.29-9.14a.48.48,0,0,0-.93.26c1.19,4.9,2.1,9.41-1.29,13.91-6.39,8.48-16.83,2.36-20.41-5.16-.09-.19-.45-.11-.42.12Z"/></g><path class="cls-10" d="M40,12.47C37.28,5.72,29-2,21.36,2.21c-6.46,3.56-7.13,11.14-4.82,17.47S26.08,33.38,33.36,30C40,27,42.05,18.89,40,12.47c0-.1-.2-.06-.17,0,2.08,6.37.08,13.76-6.11,17.11-7.16,3.88-14.7-3.74-17-10C14.6,13.91,14.81,7,20.2,3.15c7.64-5.51,16.59,2.22,19.6,9.37A.08.08,0,0,0,40,12.47Z"/><path class="cls-10" d="M26.15,12.17a7.11,7.11,0,0,1,.9,1.44,4.88,4.88,0,0,1,.31.78c.18.43-.07.76-.73,1a2.9,2.9,0,0,1-.65-.14c-.06,0-.1.07-.05.1.58.27,1.62.36,1.68-.53a4.84,4.84,0,0,0-1.36-2.74c-.06-.08-.16,0-.1.11Z"/><path class="cls-10" d="M25.46,11.59a1.21,1.21,0,0,0-1.54,1.09,2.92,2.92,0,0,0,1.41,2.47s.09,0,.05-.07a5.31,5.31,0,0,1-1.19-1.6c-.28-.86.15-2,1.24-1.78a.06.06,0,0,0,0-.11Z"/><path class="cls-10" d="M23.44,14.87a7,7,0,0,1,1.09.56c.07.05.18.09.23.16s.1.19-.14.33l-.11,0a3.53,3.53,0,0,1-.64-.16c-.06,0-.1.07,0,.09.21.11,1.34.53,1.22-.08-.05-.24-.36-.38-.54-.49a6.54,6.54,0,0,0-1-.48c-.06,0-.08.07,0,.09Z"/><path class="cls-10" d="M22.34,13.07a2.75,2.75,0,0,1,.55.58c.14.2.22.44.36.64,0,0,.08,0,.08,0a2.31,2.31,0,0,0-.9-1.29c-.06,0-.15,0-.09.09Z"/><path class="cls-10" d="M22.9,16.61a2,2,0,0,0,.32.26c.05,0,.09,0,.06-.08a3.83,3.83,0,0,0-.29-.28c-.06-.05-.15,0-.09.1Z"/><path class="cls-10" d="M25.54,16.25c.52.1,1.54.38,1.18,1.15-.25.54-1,.73-1.54.8a.07.07,0,0,0,0,.14c.64,0,1.68-.35,1.79-1.09s-.8-1.07-1.39-1.17c-.11,0-.15.15,0,.17Z"/><path class="cls-10" d="M24.39,17.16a.56.56,0,0,0-.08.82.06.06,0,0,0,.1-.06.51.51,0,0,1,.1-.63c.09-.07,0-.2-.12-.13Z"/><path class="cls-10" d="M31.63,18.8a3.18,3.18,0,0,0-1.32-2.15,1.78,1.78,0,0,0-2-.28c-1.63,1.13.28,3.28,1.54,3.66.08,0,.11-.1,0-.13a3.33,3.33,0,0,1-1.5-1.11c-.54-.73-.84-2.41.6-2.45,1.29,0,2.27,1.38,2.45,2.5,0,.1.16.06.15,0Z"/><path class="cls-10" d="M31,12.66c-.15.94-.64,2.38-1.89,2.11-.76-.17-.8-1-.58-1.65s.5-.92.7-1.39c0-.09-.07-.17-.13-.08-.52.78-1.61,2.72-.17,3.24s2-1.16,2.2-2.19c0-.09-.12-.12-.13,0Z"/><path class="cls-10" d="M30.14,10.65a.8.8,0,0,1,.59.69c0,.07.11.05.12,0a.83.83,0,0,0-.67-.81c-.09,0-.13.12,0,.14Z"/><path class="cls-10" d="M31.45,14.54a2.18,2.18,0,0,1,1.78.89c.17.22.41.54,0,.79a1.28,1.28,0,0,1-.43.1,1.72,1.72,0,0,1-1.2-.17c-.05,0-.11,0-.07.08a1.48,1.48,0,0,0,1.23.2c.34-.05.86-.09.81-.54a1.76,1.76,0,0,0-.74-1,2.27,2.27,0,0,0-1.42-.45.07.07,0,1,0,0,.13Z"/><path class="cls-10" d="M31,15.05a.66.66,0,0,0-.14.63c0,.05.12.05.11,0a.65.65,0,0,1,.13-.52c.05-.07-.05-.17-.1-.1Z"/><path class="cls-10" d="M28.12,21.41A1.47,1.47,0,0,0,28.67,20a1.19,1.19,0,0,0-1-.93c-1.06-.1-2,1.47-1.19,2.26,0,0,.07,0,.05,0-.4-.82.06-2.16,1.13-2.05a1.05,1.05,0,0,1,.9.86A1.4,1.4,0,0,1,28,21.3a.08.08,0,0,0,.11.11Z"/><path class="cls-10" d="M26.8,21.73a1.55,1.55,0,0,0,.35.21.06.06,0,0,0,.06-.1,1.85,1.85,0,0,0-.33-.24c-.08-.06-.17.08-.08.13Z"/><path class="cls-10" d="M27.9,10.74a3.17,3.17,0,0,1,0,1,3.41,3.41,0,0,1-.1.46l0,.14c-.29.15-.46.13-.5-.08a1.83,1.83,0,0,1-.08-.77c0-.28,0-.56,0-.84,0-.1-.16-.1-.16,0a7.79,7.79,0,0,0,0,1.45.74.74,0,0,0,.5.6c.35.08.36-.28.41-.54A3.65,3.65,0,0,0,28,10.71a.07.07,0,0,0-.13,0Z"/><path class="cls-10" d="M31.07,16.75l.47.35c.06,0,.13-.06.08-.11l-.45-.36c-.1-.07-.2.05-.1.12Z"/><path class="cls-10" d="M29.28,20.72a2.39,2.39,0,0,0,.18.44c0,.08.17,0,.15-.06s-.1-.29-.15-.43-.23-.06-.18,0Z"/><path class="cls-10" d="M32.28,12.81c-.23.41-.55.78-.77,1.19,0,.06,0,.11.08.07a4.38,4.38,0,0,0,.82-1.18.08.08,0,0,0-.13-.08Z"/><path class="cls-10" d="M26.67,18.8a4,4,0,0,0-.58.4c-.05.05,0,.14.06.11a2.81,2.81,0,0,0,.6-.36c.09-.06,0-.21-.08-.15Z"/><path class="cls-10" d="M25.83,10.83c.1.18.19.37.31.55s.18,0,.13-.08-.19-.38-.29-.56a.09.09,0,1,0-.15.09Z"/><path class="cls-10" d="M13.46,10.56C11.6,20.17,19.54,32.78,30.28,31.5a13.41,13.41,0,0,0,11.51-11C43.2,11.87,36.26,1.82,27.61.24c-7-1.27-12.33,3.92-14.2,10.3a.13.13,0,0,0,.25.07c2-6.21,7-11.3,13.87-10.08C35.61,2,42,10.77,41.68,18.84a13.25,13.25,0,0,1-6.59,10.83c-11.85,6.89-23.4-8-21.48-19.07C13.63,10.5,13.48,10.46,13.46,10.56Z"/></g></g></g></svg>