<svg xmlns="http://www.w3.org/2000/svg" xmlns:xlink="http://www.w3.org/1999/xlink" viewBox="0 0 41.1 35.54"><defs><style>.cls-1{isolation:isolate;}.cls-2{fill:url(#radial-gradient);}.cls-3{opacity:0.1;}.cls-4{fill:#fff;}.cls-5{fill:url(#radial-gradient-2);}.cls-6{opacity:0.18;mix-blend-mode:overlay;}.cls-7{fill:url(#radial-gradient-3);}.cls-8{fill:url(#radial-gradient-4);}.cls-9{fill:#36180f;}</style><radialGradient id="radial-gradient" cx="-125.4" cy="-80.26" r="18.02" gradientTransform="matrix(0.08, 0.93, -0.79, 0.07, -40.65, 136.91)" gradientUnits="userSpaceOnUse"><stop offset="0.69" stop-color="#ee77a6"/><stop offset="0.82" stop-color="#e61261"/><stop offset="0.96" stop-color="#8b124d"/></radialGradient><radialGradient id="radial-gradient-2" cx="-112.6" cy="-136.13" r="15.74" gradientTransform="translate(-151.17 29.45) rotate(122.57) scale(0.94 1.05)" gradientUnits="userSpaceOnUse"><stop offset="0.77" stop-color="#ee7aa8"/><stop offset="0.91" stop-color="#e61261"/><stop offset="0.99" stop-color="#8b124d"/></radialGradient><radialGradient id="radial-gradient-3" cx="-113.28" cy="-129.48" r="15.25" gradientTransform="translate(-151.84 32.89) rotate(122.57) scale(0.94 1.05)" xlink:href="#radial-gradient-2"/><radialGradient id="radial-gradient-4" cx="-72.82" cy="-39.1" fy="-28.543806750829415" r="10.69" gradientTransform="matrix(-0.1, 0.93, -1.04, -0.11, -28.07, 89.62)" gradientUnits="userSpaceOnUse"><stop offset="0.14" stop-color="#ee7aa8"/><stop offset="0.67" stop-color="#e61261"/><stop offset="0.99" stop-color="#8b124d"/></radialGradient></defs><g class="cls-1"><g id="Capa_2" data-name="Capa 2"><g id="Capa_1-2" data-name="Capa 1"><path class="cls-2" d="M24.58,19.75c1.3-4.3-.62-10.17-1.76-12.69C20.56,2,15-2.78,6.84,1.92s-9.29,18.5-.45,23.59C13.18,29.41,22.09,28,24.58,19.75ZM8.12,24.16C.42,21,1.54,7.38,8.24,3.54S20,3.3,21.69,8.5C26.88,24.2,16,27.42,8.12,24.16Z" transform="translate(0 0)"/><g class="cls-3"><path class="cls-4" d="M12.24.86a14.48,14.48,0,0,0-5.53,2,.17.17,0,0,0,.13.3c1.86-.55,3.63-1.39,5.51-1.92a.21.21,0,0,0-.11-.41Z" transform="translate(0 0)"/></g><g class="cls-3"><path class="cls-4" d="M9,2.06A11.43,11.43,0,0,0,2.54,8.25c-.08.21.25.34.36.15a14.51,14.51,0,0,1,6.2-6c.19-.1.05-.44-.15-.35Z" transform="translate(0 0)"/></g><g class="cls-3"><path class="cls-4" d="M7.74,2.47A13.56,13.56,0,0,0,2.05,9c0,.13.15.24.24.14.87-1,1.46-2.21,2.26-3.25A12.4,12.4,0,0,1,7.88,2.71a.14.14,0,0,0-.14-.24Z" transform="translate(0 0)"/></g><g class="cls-3"><path class="cls-4" d="M22.84,21.27a12.53,12.53,0,0,1-6.17,4.53.24.24,0,0,0,.13.47,9.38,9.38,0,0,0,6.37-4.81.19.19,0,0,0-.33-.19Z" transform="translate(0 0)"/></g><g class="cls-3"><path class="cls-4" d="M22.26,22.22a9.12,9.12,0,0,1-3.08,2.61,16.54,16.54,0,0,1-3.89,1.08c-.19,0-.2.37,0,.4,2.86.46,5.8-1.56,7.36-3.79.16-.23-.21-.52-.39-.3Z" transform="translate(0 0)"/></g><g class="cls-3"><path class="cls-4" d="M19.67,25.07a22.24,22.24,0,0,1-9.47,0,.34.34,0,0,0-.18.65c3,1.11,6.88,1.16,9.65-.62Z" transform="translate(0 0)"/></g><g class="cls-3"><path class="cls-4" d="M2.08,19A7.25,7.25,0,0,0,5.3,23.51c.2.11.42-.16.25-.32a9.57,9.57,0,0,1-3-4.35.25.25,0,0,0-.49.13Z" transform="translate(0 0)"/></g><g class="cls-3"><path class="cls-4" d="M2.48,19.42C3.59,21.59,4.89,24,7.24,25c.15.07.34-.12.19-.24a15.57,15.57,0,0,1-2.68-2.45A29.18,29.18,0,0,1,2.8,19.24a.18.18,0,0,0-.32.18Z" transform="translate(0 0)"/></g><g class="cls-3"><path class="cls-4" d="M2.69,20.55a12.21,12.21,0,0,0,5,4.89.18.18,0,0,0,.18-.3A19.63,19.63,0,0,1,3,20.37c-.13-.18-.42,0-.31.18Z" transform="translate(0 0)"/></g><g class="cls-3"><path class="cls-4" d="M7.81,25.6a9.67,9.67,0,0,0,4.24,1.12.09.09,0,0,0,0-.17A23.55,23.55,0,0,1,8,25.33c-.18-.09-.34.18-.16.27Z" transform="translate(0 0)"/></g><g class="cls-3"><path class="cls-4" d="M12.87,26.79a25.89,25.89,0,0,1-3.4-.68.11.11,0,0,0-.09.2,7.48,7.48,0,0,0,3.49.79c.19,0,.19-.3,0-.31Z" transform="translate(0 0)"/></g><g class="cls-3"><path class="cls-4" d="M12.45,26.72a.28.28,0,0,0,0-.55.28.28,0,0,0,0,.55Z" transform="translate(0 0)"/></g><g class="cls-3"><path class="cls-4" d="M1.83,9.6a12.46,12.46,0,0,0-1,7.57c0,.2.33.14.34-.05.09-2.54-.16-4.94,1-7.34.1-.21-.21-.4-.32-.18Z" transform="translate(0 0)"/></g><g class="cls-3"><path class="cls-4" d="M1.88,9.8a14.42,14.42,0,0,0-.48,8.64c.07.25.41.14.38-.1a19.19,19.19,0,0,1,.38-8.46.15.15,0,0,0-.28-.08Z" transform="translate(0 0)"/></g><g class="cls-3"><path class="cls-4" d="M1,11a8,8,0,0,0,.66,6.47c.09.16.39.05.32-.14a9.4,9.4,0,0,1-.65-6.24A.17.17,0,0,0,1,11Z" transform="translate(0 0)"/></g><g class="cls-3"><path class="cls-4" d="M.45,13.48A10.24,10.24,0,0,0,1.08,17a.18.18,0,0,0,.35-.1,24.15,24.15,0,0,1-.65-3.37.17.17,0,0,0-.33,0Z" transform="translate(0 0)"/></g><g class="cls-3"><path class="cls-4" d="M14,1.4a9.78,9.78,0,0,1,2.38.66c.68.3,1.27.77,2,1.06a.14.14,0,0,0,.15-.21c-.93-1.26-2.95-1.78-4.43-1.9-.23,0-.28.36-.06.39Z" transform="translate(0 0)"/></g><g class="cls-3"><path class="cls-4" d="M14.1,1.11a15.37,15.37,0,0,1,4.12,1.72c.23.11.47-.17.28-.36A7.44,7.44,0,0,0,14.15.69c-.24,0-.29.38-.05.42Z" transform="translate(0 0)"/></g><g class="cls-3"><path class="cls-4" d="M13.4,1.32A13,13,0,0,1,16,1.93c.84.31,1.55.88,2.39,1.17.21.08.31-.19.2-.34C17.53,1.39,15.08.88,13.44,1c-.16,0-.23.27,0,.31Z" transform="translate(0 0)"/></g><g class="cls-3"><path class="cls-4" d="M13,1.67a12.51,12.51,0,0,1,5.29,1.55c.21.1.46-.17.26-.34A8.24,8.24,0,0,0,13,1.17a.25.25,0,0,0,0,.5Z" transform="translate(0 0)"/></g><g class="cls-3"><path class="cls-4" d="M22.13,8.58a34.81,34.81,0,0,1,1.27,5,.16.16,0,0,0,.31,0,16.52,16.52,0,0,0-1.24-5.07c-.08-.2-.41-.12-.34.09Z" transform="translate(0 0)"/></g><g class="cls-3"><path class="cls-4" d="M21.82,8.47A23.67,23.67,0,0,1,23.55,15c0,.16.27.12.28,0a13.92,13.92,0,0,0-1.77-6.59c-.08-.16-.31,0-.24.13Z" transform="translate(0 0)"/></g><g class="cls-3"><path class="cls-4" d="M19.08,3.87a16.35,16.35,0,0,1,4.43,11.06.19.19,0,1,0,.37,0,14.5,14.5,0,0,0-4.56-11.3c-.16-.16-.39.08-.24.24Z" transform="translate(0 0)"/></g><g class="cls-3"><path class="cls-4" d="M18.71,3.51c3.26,2.24,5.22,8.75,4.91,12.55a.1.1,0,0,0,.2,0c.6-3.86-1.6-10.56-5-12.79-.14-.09-.27.13-.13.22Z" transform="translate(0 0)"/></g><g class="cls-3"><path class="cls-4" d="M23.16,12.61A51.57,51.57,0,0,0,23.52,18c0,.11.21.12.22,0a20.64,20.64,0,0,0-.36-5.43c0-.14-.24-.15-.22,0Z" transform="translate(0 0)"/></g><g class="cls-3"><path class="cls-4" d="M23.55,16.55c-.15,2.57-.66,4.67-2.62,6.47a.16.16,0,0,0,.19.25c2.31-1.27,2.65-4.37,2.76-6.72,0-.22-.32-.22-.33,0Z" transform="translate(0 0)"/></g><g class="cls-3"><path class="cls-4" d="M23.58,16.63c-.25,2.75-1.21,5.58-3.7,7.05-.13.08-.05.32.1.26,2.79-1.12,3.74-4.58,4-7.31,0-.24-.35-.24-.37,0Z" transform="translate(0 0)"/></g><g class="cls-3"><path class="cls-4" d="M24.07,16.3c-.21,3.15-.95,5.93-3.58,7.81a.08.08,0,1,0,.09.14c2.84-1.67,3.49-4.84,3.64-7.95a.08.08,0,1,0-.15,0Z" transform="translate(0 0)"/></g><g class="cls-3"><path class="cls-4" d="M24,14.51c.26,4.66-1,8-5,10.63a.1.1,0,0,0,.1.17c4.23-2,5.83-6.35,5-10.82,0-.08-.14-.06-.14,0Z" transform="translate(0 0)"/></g><g class="cls-3"><path class="cls-4" d="M22.11,22.17A17.49,17.49,0,0,1,18,25.47c-.09.06,0,.21.07.17a9,9,0,0,0,4.19-3.36c.06-.08-.08-.2-.15-.11Z" transform="translate(0 0)"/></g><g class="cls-3"><path class="cls-4" d="M21.41,23.9A26,26,0,0,1,16.62,26a.13.13,0,0,0,.07.25,13,13,0,0,0,4.84-2.18c.13-.09,0-.3-.12-.21Z" transform="translate(0 0)"/></g><g class="cls-3"><path class="cls-4" d="M18.7,25.16a7.51,7.51,0,0,1-3.75,1c-.14,0-.19.22,0,.24a5.65,5.65,0,0,0,3.93-1c.14-.1,0-.33-.14-.24Z" transform="translate(0 0)"/></g><g class="cls-3"><path class="cls-4" d="M15.75,26.25a4.34,4.34,0,0,1-1.25.08,0,0,0,0,0,0,.09,2.86,2.86,0,0,0,1.3,0,.07.07,0,1,0,0-.14Z" transform="translate(0 0)"/></g><g class="cls-3"><path class="cls-4" d="M9.83,1.61A10.2,10.2,0,0,0,3.35,7.53c-.08.2.26.34.36.15A11.68,11.68,0,0,1,9.89,1.84c.14-.06.09-.27-.06-.23Z" transform="translate(0 0)"/></g><g class="cls-3"><path class="cls-4" d="M6.92,3a11.53,11.53,0,0,0-4.4,5.56.14.14,0,0,0,.26.11A15.57,15.57,0,0,1,7,3.12c.09-.06,0-.21-.12-.15Z" transform="translate(0 0)"/></g><g class="cls-3"><path class="cls-4" d="M1.28,12c0,1.52-.11,3-.08,4.54a.1.1,0,0,0,.2,0c.06-1.51,0-3,0-4.54a.08.08,0,0,0-.15,0Z" transform="translate(0 0)"/></g><g class="cls-3"><path class="cls-4" d="M1.21,12.76a9.9,9.9,0,0,0,.86,5.75.11.11,0,0,0,.19-.08c-.2-.88-.49-1.72-.65-2.61a25.61,25.61,0,0,1-.26-3c0-.07-.12-.1-.14,0Z" transform="translate(0 0)"/></g><g class="cls-3"><path class="cls-4" d="M1.08,14.35A11.94,11.94,0,0,0,2.31,20a.11.11,0,0,0,.2-.08,28.5,28.5,0,0,1-1.2-5.57c0-.14-.23-.14-.23,0Z" transform="translate(0 0)"/></g><g class="cls-3"><path class="cls-4" d="M.79,14.64a16.88,16.88,0,0,0,1.44,4.92.14.14,0,0,0,.26-.11A34.21,34.21,0,0,1,1,14.57c0-.17-.29-.09-.25.07Z" transform="translate(0 0)"/></g><g class="cls-3"><path class="cls-4" d="M1.07,15.69A16.62,16.62,0,0,0,2,19.5a.14.14,0,0,0,.27-.08,37.42,37.42,0,0,1-.91-3.76c0-.14-.27-.11-.25,0Z" transform="translate(0 0)"/></g><g class="cls-3"><path class="cls-4" d="M2.6,20.33a12.38,12.38,0,0,0,5.16,4.83.16.16,0,0,0,.17-.28,18.32,18.32,0,0,1-5.06-4.71c-.11-.16-.38,0-.27.16Z" transform="translate(0 0)"/></g><g class="cls-3"><path class="cls-4" d="M4.47,22.31A15.17,15.17,0,0,0,6,23.56a5.09,5.09,0,0,0,1.71,1,.14.14,0,0,0,.14-.23,8.7,8.7,0,0,0-1.46-.95,19.05,19.05,0,0,1-1.72-1.22c-.14-.11-.34.07-.2.19Z" transform="translate(0 0)"/></g><path class="cls-4" d="M21,24.28A10.06,10.06,0,0,1,15.76,26a.06.06,0,1,0,0,.11A8.28,8.28,0,0,0,21,24.33s0-.07,0,0Z" transform="translate(0 0)"/><path class="cls-4" d="M1.51,17.32c.14.45.27.9.41,1.34,0,0,0,0,0,0-.12-.45-.26-.9-.39-1.35,0,0,0,0,0,0Z" transform="translate(0 0)"/><path class="cls-4" d="M2.46,20.15a12.55,12.55,0,0,0,7,6c.06,0,.09-.07,0-.1a12.84,12.84,0,0,1-7-5.87Z" transform="translate(0 0)"/><path class="cls-4" d="M5,4.94c1.82-3.57,8.63-4.83,12-3,.06,0,.12-.06.06-.1-3.32-2-10.37-.55-12.09,3.09,0,0,0,0,0,0Z" transform="translate(0 0)"/><path class="cls-4" d="M21.35,6.07a23.89,23.89,0,0,1,2.72,10.2s.07.05.07,0A23.4,23.4,0,0,0,21.43,6s-.1,0-.08.05Z" transform="translate(0 0)"/><path class="cls-5" d="M34.39,30C40.84,26.75,44.27,16.15,35.78,8S16,.11,11.41,9.65c-1.78,3.69-1.88,11.65,3.72,16.8C22.15,32.9,28,33.22,34.39,30ZM14,15.09C14.51,4.62,25,4.5,28.37,6c0,0,2.12.68,5.93,3.89,5.7,4.79,6.12,19.35-8.72,18.65C19.18,28.26,13.7,22.37,14,15.09Z" transform="translate(0 0)"/><g class="cls-3"><path class="cls-4" d="M38.33,19.54c-.11,2.73-1.17,4.62-2.68,6.8-.18.26.19.48.4.31a8.8,8.8,0,0,0,2.88-7.11.3.3,0,0,0-.6,0Z" transform="translate(0 0)"/></g><g class="cls-3"><path class="cls-4" d="M13.8,10.88c.81-2.27,2.66-3.45,4.33-5a.19.19,0,0,0-.22-.3,9.45,9.45,0,0,0-4.56,5.2c-.08.29.35.4.45.12Z" transform="translate(0 0)"/></g><g class="cls-3"><path class="cls-4" d="M13.64,10.05a20.16,20.16,0,0,1,6.91-5.83c.22-.13.08-.5-.17-.41a15,15,0,0,0-7.17,6c-.18.27.25.51.43.25Z" transform="translate(0 0)"/></g><g class="cls-3"><path class="cls-4" d="M17.15,6.36a12.22,12.22,0,0,1,7.66-1.68c.28,0,.34-.44.07-.48a10.82,10.82,0,0,0-8,1.75c-.25.17,0,.57.24.41Z" transform="translate(0 0)"/></g><g class="cls-3"><path class="cls-4" d="M19.67,5.36c3.17-.65,5.91-.15,9,.5.15,0,.27-.19.11-.27C26,4.18,22.57,4.32,19.6,5.08c-.19,0-.11.31.07.28Z" transform="translate(0 0)"/></g><g class="cls-3"><path class="cls-4" d="M23.26,4.53a21,21,0,0,1,9.87,3.56c.22.14.5-.2.29-.37A16.76,16.76,0,0,0,23.26,4.17c-.23,0-.23.34,0,.36Z" transform="translate(0 0)"/></g><g class="cls-3"><path class="cls-4" d="M27.75,5.33c3.65,1.57,6.32,4.31,9.57,6.48.21.14.43-.17.27-.35a26,26,0,0,0-9.65-6.58c-.26-.1-.44.34-.19.45Z" transform="translate(0 0)"/></g><g class="cls-3"><path class="cls-4" d="M34.17,9.34A16.51,16.51,0,0,1,39,16.92a.3.3,0,0,0,.58-.16,13.1,13.1,0,0,0-5-7.77c-.24-.19-.58.14-.34.35Z" transform="translate(0 0)"/></g><g class="cls-3"><path class="cls-4" d="M38.45,17.94c-.65,3.8-2.28,6.64-4.28,9.85a.27.27,0,0,0,.42.33A15.26,15.26,0,0,0,39,18c0-.3-.49-.38-.54-.07Z" transform="translate(0 0)"/></g><g class="cls-3"><path class="cls-4" d="M36.74,24.29A10.34,10.34,0,0,1,32.28,28c-1.64.65-3.29.51-5,.68a.28.28,0,0,0-.07.55c4,1.2,7.95-1.44,10-4.67.2-.3-.27-.55-.47-.27Z" transform="translate(0 0)"/></g><g class="cls-3"><path class="cls-4" d="M35.38,26.63a17.26,17.26,0,0,1-10.93,1.76c-.35-.05-.4.51-.08.6a13.63,13.63,0,0,0,11.27-1.92.26.26,0,0,0-.26-.44Z" transform="translate(0 0)"/></g><g class="cls-3"><path class="cls-4" d="M29.63,28.77a16,16,0,0,1-6.4,0,.37.37,0,0,0-.2.72,11.71,11.71,0,0,0,6.76-.17.31.31,0,0,0-.16-.59Z" transform="translate(0 0)"/></g><g class="cls-3"><path class="cls-4" d="M28.48,29.31c-.88,0-1.75,0-2.63,0A25.18,25.18,0,0,1,23,28.75c-.37-.07-.65.45-.27.64a7.83,7.83,0,0,0,5.84.37.23.23,0,0,0-.06-.45Z" transform="translate(0 0)"/></g><g class="cls-3"><path class="cls-4" d="M14.87,8.18c-1.63,2.27-3,5.33-2.74,8.19,0,.22.35.3.41.06.65-2.91,1.11-5.42,2.8-8,.2-.3-.27-.56-.47-.28Z" transform="translate(0 0)"/></g><g class="cls-3"><path class="cls-4" d="M13.6,10.3a13.11,13.11,0,0,0-.08,10.21c.13.28.55.08.48-.2-.84-3.46-1.12-6.45,0-9.91.08-.25-.3-.34-.39-.1Z" transform="translate(0 0)"/></g><g class="cls-3"><path class="cls-4" d="M12.79,12.71a11.77,11.77,0,0,0,1.69,10.18c.2.25.56-.07.43-.33-1.65-3.15-2.5-6.19-1.77-9.75,0-.23-.29-.33-.35-.1Z" transform="translate(0 0)"/></g><g class="cls-3"><path class="cls-4" d="M12.89,17.11c.4,2.76,1.53,6,3.78,7.76.2.16.56-.05.39-.3C15.44,22.09,13.93,20,13.31,17c-.05-.28-.46-.16-.42.11Z" transform="translate(0 0)"/></g><g class="cls-3"><path class="cls-4" d="M13.62,22a6.87,6.87,0,0,0,3.73,3.93c.29.09.55-.32.31-.52-.66-.53-1.39-.94-2-1.53a8.74,8.74,0,0,1-1.57-2.15c-.17-.32-.61,0-.47.27Z" transform="translate(0 0)"/></g><g class="cls-3"><path class="cls-4" d="M14,23.22a16.37,16.37,0,0,0,2,2.05,10.65,10.65,0,0,0,2.09,1.64.31.31,0,0,0,.38-.49,21.89,21.89,0,0,0-2.22-1.84c-.67-.56-1.32-1.16-2-1.69-.21-.16-.39.16-.26.33Z" transform="translate(0 0)"/></g><g class="cls-6"><path class="cls-4" d="M38.8,19.13a12.59,12.59,0,0,1-3.95,8.48c-.14.14,0,.42.22.29a10.75,10.75,0,0,0,4-8.77.14.14,0,0,0-.28,0Z" transform="translate(0 0)"/></g><g class="cls-6"><path class="cls-4" d="M38,22.55a8.9,8.9,0,0,1-2.05,3.33,13.32,13.32,0,0,1-3.08,2,.17.17,0,0,0,.13.32c2.7-.64,4.55-3,5.35-5.57.08-.22-.27-.31-.35-.1Z" transform="translate(0 0)"/></g><g class="cls-6"><path class="cls-4" d="M36.51,25.41a10.21,10.21,0,0,1-2.14,1.85c-.74.47-1.56.74-2.32,1.16-.15.08-.09.35.09.33,1.84-.19,3.56-1.65,4.67-3,.16-.21-.12-.51-.3-.3Z" transform="translate(0 0)"/></g><g class="cls-6"><path class="cls-4" d="M36.2,25.75a9.2,9.2,0,0,1-4.82,3c-.29.08-.16.5.13.45a7.14,7.14,0,0,0,4.93-3.23.15.15,0,0,0-.24-.19Z" transform="translate(0 0)"/></g><g class="cls-6"><path class="cls-4" d="M13.81,10.82a24,24,0,0,1,1.84-3c.11-.17-.15-.38-.29-.22a11.54,11.54,0,0,0-1.94,3c-.12.26.26.49.39.23Z" transform="translate(0 0)"/></g><g class="cls-6"><path class="cls-4" d="M14,10.63a12,12,0,0,1,3.55-4.54c.21-.16,0-.52-.21-.36a8.7,8.7,0,0,0-3.56,4.81c0,.13.16.22.22.09Z" transform="translate(0 0)"/></g><g class="cls-6"><path class="cls-4" d="M13,11.25a12.82,12.82,0,0,1,4.07-5.57c.16-.13-.05-.4-.22-.29a10.65,10.65,0,0,0-4.22,5.76c-.08.24.29.33.37.1Z" transform="translate(0 0)"/></g><g class="cls-6"><path class="cls-4" d="M13.36,10.9a11.26,11.26,0,0,1,3.51-4.45,14,14,0,0,1,4.91-1.84.15.15,0,0,0,0-.29c-4.07.2-7,2.83-8.68,6.41-.09.2.2.38.3.17Z" transform="translate(0 0)"/></g><g class="cls-6"><path class="cls-4" d="M15.83,7.27c2.5-2,5.13-2.52,8.22-2.8.13,0,.19-.23,0-.25-3.05-.48-6.2.89-8.48,2.83-.15.13.07.34.22.22Z" transform="translate(0 0)"/></g><g class="cls-6"><path class="cls-4" d="M20,5.2a28.65,28.65,0,0,1,6.79-.46.14.14,0,0,0,0-.27,13.31,13.31,0,0,0-6.91.44A.15.15,0,0,0,20,5.2Z" transform="translate(0 0)"/></g><g class="cls-6"><path class="cls-4" d="M20.32,5.09A15.57,15.57,0,0,1,27.18,5c.19,0,.28-.24.09-.3a12.43,12.43,0,0,0-7,.13c-.16,0-.09.28.07.24Z" transform="translate(0 0)"/></g><g class="cls-6"><path class="cls-4" d="M26.5,5a32.33,32.33,0,0,1,8,3.4c.13.08.29-.11.17-.22a18.59,18.59,0,0,0-8.09-3.61c-.28-.06-.4.37-.12.43Z" transform="translate(0 0)"/></g><g class="cls-6"><path class="cls-4" d="M28.23,5.38a50.8,50.8,0,0,1,7.17,4.69c.15.11.29-.12.19-.24a19.59,19.59,0,0,0-7.18-4.76c-.21-.1-.4.21-.18.31Z" transform="translate(0 0)"/></g><g class="cls-6"><path class="cls-4" d="M30,6a41.91,41.91,0,0,1,6.1,4.77c.12.1.35,0,.24-.19a17.77,17.77,0,0,0-6.14-4.93A.2.2,0,0,0,30,6Z" transform="translate(0 0)"/></g><g class="cls-6"><path class="cls-4" d="M33.25,8.7A18.78,18.78,0,0,1,38,13.88a.14.14,0,0,0,.25-.14,12.88,12.88,0,0,0-4.83-5.41c-.23-.15-.43.21-.21.37Z" transform="translate(0 0)"/></g><g class="cls-6"><path class="cls-4" d="M36.48,11.69c.62,1.11,1,2.29,1.58,3.43.08.17.33.05.29-.12a14.17,14.17,0,0,0-1.58-3.48.17.17,0,0,0-.29.17Z" transform="translate(0 0)"/></g><g class="cls-6"><path class="cls-4" d="M15.37,23.75A17.8,17.8,0,0,0,23.29,29c.2.06.34-.24.15-.34a27.24,27.24,0,0,1-7.77-5.21c-.19-.19-.48.1-.3.3Z" transform="translate(0 0)"/></g><g class="cls-6"><path class="cls-4" d="M17.47,26.35c3.34,2.09,7.32,3.9,11.31,4.13.24,0,.28-.35,0-.41C24.9,29,21.27,28,17.7,26a.23.23,0,0,0-.23.39Z" transform="translate(0 0)"/></g><g class="cls-6"><path class="cls-4" d="M24.9,29.67c1.71.29,3.93.26,5.36-.87.15-.12,0-.33-.18-.29-.8.17-1.56.51-2.37.65a9.06,9.06,0,0,1-2.75,0c-.26,0-.32.43-.06.47Z" transform="translate(0 0)"/></g><g class="cls-6"><path class="cls-4" d="M29.68,28.56a19.39,19.39,0,0,1-7.66.31c-.26,0-.27.35-.06.42A11.77,11.77,0,0,0,29.79,29c.25-.09.15-.48-.11-.41Z" transform="translate(0 0)"/></g><g class="cls-6"><path class="cls-4" d="M29.67,29.16a13.35,13.35,0,0,1-7.92-.69c-.2-.07-.32.24-.14.34a9.32,9.32,0,0,0,8.12.56.11.11,0,0,0-.06-.21Z" transform="translate(0 0)"/></g><g class="cls-6"><path class="cls-4" d="M27.38,29.5a13.78,13.78,0,0,1-5.67-1.36c-.22-.1-.41.2-.2.33a10.31,10.31,0,0,0,5.87,1.39.18.18,0,0,0,0-.36Z" transform="translate(0 0)"/></g><g class="cls-6"><path class="cls-4" d="M12.15,16.35a14.66,14.66,0,0,0,2.11,5.16.25.25,0,0,0,.44-.25,25.78,25.78,0,0,1-2.07-5.05c-.08-.31-.55-.17-.48.14Z" transform="translate(0 0)"/></g><g class="cls-6"><path class="cls-4" d="M12.54,17.43a12.63,12.63,0,0,0,2.78,6.14c.18.19.45-.05.35-.26a40.64,40.64,0,0,1-2.81-6,.17.17,0,0,0-.32.09Z" transform="translate(0 0)"/></g><path class="cls-4" d="M15.32,8.09c.25-.25.5-.49.74-.75s.43-.56.67-.81c0,0,0,0,0,0-.25.25-.54.44-.8.68s-.49.5-.74.75c-.09.09.06.24.15.15Z" transform="translate(0 0)"/><path class="cls-4" d="M20.78,4.48a17.15,17.15,0,0,1,7.3.49s0,0,0,0a17,17,0,0,0-7.33-.52s0,.07,0,.06Z" transform="translate(0 0)"/><path class="cls-4" d="M29.79,6.27a15.8,15.8,0,0,1,6.67,5.18c0,.06.15,0,.11-.06a15.13,15.13,0,0,0-6.76-5.22c-.06,0-.08.08,0,.1Z" transform="translate(0 0)"/><path class="cls-7" d="M28.1,28.57c6.17-3.09,9.46-13.25,1.33-21S10.49,0,6.07,9.09c-1.7,3.53-3.58,10.13,3,16.41C15.53,31.55,21.92,31.67,28.1,28.57Zm-19.5-14C9.05,4.79,18.87,4.68,22,6.1c0,0,2,.64,5.55,3.64,5.34,4.48,5.73,18.11-8.16,17.46C13.42,26.92,8.29,21.4,8.6,14.59Z" transform="translate(0 0)"/><g class="cls-3"><path class="cls-4" d="M32.42,18.8c-.11,2.75-1.17,4.66-2.7,6.85-.18.26.2.48.41.32A8.9,8.9,0,0,0,33,18.8a.31.31,0,0,0-.61,0Z" transform="translate(0 0)"/></g><g class="cls-3"><path class="cls-4" d="M7.7,10.07C8.51,7.78,10.38,6.59,12.07,5a.19.19,0,0,0-.23-.3c-2,1.15-4,3-4.59,5.23a.23.23,0,0,0,.45.13Z" transform="translate(0 0)"/></g><g class="cls-3"><path class="cls-4" d="M7.54,9.24a20.13,20.13,0,0,1,7-5.89c.22-.12.07-.5-.18-.41A15.12,15.12,0,0,0,7.11,9c-.18.27.25.52.43.26Z" transform="translate(0 0)"/></g><g class="cls-3"><path class="cls-4" d="M11.08,5.52a12.28,12.28,0,0,1,7.72-1.7c.28,0,.34-.44.06-.49a10.92,10.92,0,0,0-8,1.77c-.26.17,0,.58.24.42Z" transform="translate(0 0)"/></g><g class="cls-3"><path class="cls-4" d="M13.62,4.5c3.19-.65,6-.14,9.09.51.15,0,.27-.2.11-.27C20,3.31,16.54,3.45,13.54,4.22a.15.15,0,0,0,.08.28Z" transform="translate(0 0)"/></g><g class="cls-3"><path class="cls-4" d="M17.24,3.66a21.22,21.22,0,0,1,9.94,3.6c.23.14.51-.2.29-.37A16.77,16.77,0,0,0,17.24,3.3a.18.18,0,0,0,0,.36Z" transform="translate(0 0)"/></g><g class="cls-3"><path class="cls-4" d="M21.76,4.47c3.68,1.59,6.37,4.35,9.65,6.53.21.15.43-.17.27-.35A26.21,26.21,0,0,0,22,4c-.26-.1-.45.34-.19.45Z" transform="translate(0 0)"/></g><g class="cls-3"><path class="cls-4" d="M28.23,8.51a16.64,16.64,0,0,1,4.84,7.65.31.31,0,0,0,.59-.16,13.24,13.24,0,0,0-5.08-7.83c-.24-.2-.59.13-.35.34Z" transform="translate(0 0)"/></g><g class="cls-3"><path class="cls-4" d="M32.55,17.18c-.65,3.83-2.3,6.7-4.31,9.94-.17.26.2.53.42.32a15.4,15.4,0,0,0,4.43-10.18c0-.31-.49-.39-.54-.08Z" transform="translate(0 0)"/></g><g class="cls-3"><path class="cls-4" d="M30.83,23.58a10.52,10.52,0,0,1-4.5,3.75c-1.65.65-3.32.51-5,.68a.29.29,0,0,0-.07.56c4,1.21,8-1.46,10.08-4.71.2-.3-.27-.56-.47-.28Z" transform="translate(0 0)"/></g><g class="cls-3"><path class="cls-4" d="M29.46,26a17.43,17.43,0,0,1-11,1.77c-.35,0-.4.51-.08.61a13.82,13.82,0,0,0,11.37-1.94.26.26,0,0,0-.26-.44Z" transform="translate(0 0)"/></g><g class="cls-3"><path class="cls-4" d="M23.65,28.1a16.1,16.1,0,0,1-6.45,0,.38.38,0,0,0-.2.73,11.83,11.83,0,0,0,6.82-.17.31.31,0,0,0-.17-.6Z" transform="translate(0 0)"/></g><g class="cls-3"><path class="cls-4" d="M22.49,28.65c-.88,0-1.76,0-2.65,0s-1.93-.35-2.9-.53c-.37-.08-.65.45-.27.64a7.91,7.91,0,0,0,5.89.38.24.24,0,0,0-.07-.46Z" transform="translate(0 0)"/></g><g class="cls-3"><path class="cls-4" d="M8.77,7.35C7.13,9.63,5.71,12.72,6,15.61c0,.21.35.3.41.05.66-2.93,1.11-5.46,2.82-8,.2-.3-.27-.56-.48-.28Z" transform="translate(0 0)"/></g><g class="cls-3"><path class="cls-4" d="M7.5,9.48a13.24,13.24,0,0,0-.08,10.3c.12.28.55.08.48-.2-.85-3.49-1.13-6.51,0-10,.08-.25-.3-.35-.39-.11Z" transform="translate(0 0)"/></g><g class="cls-3"><path class="cls-4" d="M6.68,11.92A11.85,11.85,0,0,0,8.39,22.17c.19.26.56-.07.43-.33C7.15,18.67,6.3,15.6,7,12a.18.18,0,1,0-.35-.09Z" transform="translate(0 0)"/></g><g class="cls-3"><path class="cls-4" d="M6.78,16.35c.41,2.78,1.54,6,3.81,7.82.21.17.57,0,.4-.3-1.64-2.5-3.16-4.62-3.78-7.64-.06-.28-.47-.15-.43.12Z" transform="translate(0 0)"/></g><g class="cls-3"><path class="cls-4" d="M7.51,21.25c.69,1.6,2,3.42,3.77,4,.29.09.55-.32.31-.52-.67-.54-1.4-1-2-1.55A8.49,8.49,0,0,1,8,21c-.17-.32-.61,0-.48.28Z" transform="translate(0 0)"/></g><g class="cls-3"><path class="cls-4" d="M7.9,22.51a16.54,16.54,0,0,0,2,2.06,10.87,10.87,0,0,0,2.11,1.66.32.32,0,0,0,.39-.5,22.23,22.23,0,0,0-2.24-1.85c-.68-.56-1.33-1.17-2-1.7-.21-.16-.39.16-.26.33Z" transform="translate(0 0)"/></g><g class="cls-6"><path class="cls-4" d="M32.9,18.39a12.72,12.72,0,0,1-4,8.55c-.14.14,0,.41.22.28a10.78,10.78,0,0,0,4-8.83.14.14,0,0,0-.28,0Z" transform="translate(0 0)"/></g><g class="cls-6"><path class="cls-4" d="M32.06,21.84A8.92,8.92,0,0,1,30,25.19a13.31,13.31,0,0,1-3.1,2,.18.18,0,0,0,.14.32c2.72-.64,4.58-3.07,5.39-5.61.07-.23-.27-.32-.35-.1Z" transform="translate(0 0)"/></g><g class="cls-6"><path class="cls-4" d="M30.59,24.72a10.31,10.31,0,0,1-2.15,1.86c-.75.48-1.58.75-2.35,1.17-.14.09-.09.35.09.34,1.86-.19,3.6-1.67,4.71-3.07.17-.21-.11-.51-.3-.3Z" transform="translate(0 0)"/></g><g class="cls-6"><path class="cls-4" d="M30.28,25.06a9.32,9.32,0,0,1-4.86,3c-.29.07-.16.5.13.45a7.24,7.24,0,0,0,5-3.26c.09-.15-.13-.33-.25-.19Z" transform="translate(0 0)"/></g><g class="cls-6"><path class="cls-4" d="M7.71,10A25.81,25.81,0,0,1,9.56,7c.12-.17-.15-.37-.29-.22a11.86,11.86,0,0,0-1.95,3c-.13.27.26.5.39.23Z" transform="translate(0 0)"/></g><g class="cls-6"><path class="cls-4" d="M7.87,9.82a12.16,12.16,0,0,1,3.58-4.58c.21-.16,0-.52-.21-.37A8.73,8.73,0,0,0,7.65,9.73a.12.12,0,0,0,.22.09Z" transform="translate(0 0)"/></g><g class="cls-6"><path class="cls-4" d="M6.93,10.45A13,13,0,0,1,11,4.82c.16-.13,0-.39-.23-.28a10.66,10.66,0,0,0-4.25,5.8c-.08.24.29.34.37.11Z" transform="translate(0 0)"/></g><g class="cls-6"><path class="cls-4" d="M7.26,10.09A11.34,11.34,0,0,1,10.79,5.6a14.32,14.32,0,0,1,5-1.85.15.15,0,0,0,0-.29C11.6,3.66,8.59,6.31,7,9.92c-.1.2.2.38.3.17Z" transform="translate(0 0)"/></g><g class="cls-6"><path class="cls-4" d="M9.75,6.43c2.52-2,5.16-2.55,8.28-2.82.14,0,.19-.23,0-.26-3.07-.48-6.25.9-8.54,2.86-.16.13.06.34.22.22Z" transform="translate(0 0)"/></g><g class="cls-6"><path class="cls-4" d="M13.94,4.34a29.15,29.15,0,0,1,6.85-.46.14.14,0,0,0,0-.27,13.4,13.4,0,0,0-7,.44.15.15,0,0,0,.08.29Z" transform="translate(0 0)"/></g><g class="cls-6"><path class="cls-4" d="M14.27,4.23a15.84,15.84,0,0,1,6.92-.07.16.16,0,0,0,.08-.3A12.42,12.42,0,0,0,14.2,4c-.16,0-.09.28.07.24Z" transform="translate(0 0)"/></g><g class="cls-6"><path class="cls-4" d="M20.5,4.14a32.14,32.14,0,0,1,8.1,3.43c.14.08.3-.11.17-.22a18.54,18.54,0,0,0-8.15-3.64c-.28-.06-.4.37-.12.43Z" transform="translate(0 0)"/></g><g class="cls-6"><path class="cls-4" d="M22.24,4.53a50.71,50.71,0,0,1,7.23,4.72c.16.11.3-.12.19-.24a19.75,19.75,0,0,0-7.23-4.8c-.21-.1-.4.21-.19.32Z" transform="translate(0 0)"/></g><g class="cls-6"><path class="cls-4" d="M24,5.16A42,42,0,0,1,30.13,10c.13.1.36,0,.25-.19a17.74,17.74,0,0,0-6.19-5,.2.2,0,0,0-.2.35Z" transform="translate(0 0)"/></g><g class="cls-6"><path class="cls-4" d="M27.3,7.87a18.69,18.69,0,0,1,4.83,5.23.15.15,0,0,0,.25-.15A12.93,12.93,0,0,0,27.52,7.5c-.23-.15-.44.21-.22.37Z" transform="translate(0 0)"/></g><g class="cls-6"><path class="cls-4" d="M30.56,10.89c.62,1.12,1,2.3,1.59,3.46.08.16.33,0,.29-.13a13.81,13.81,0,0,0-1.59-3.5.17.17,0,0,0-.29.17Z" transform="translate(0 0)"/></g><g class="cls-6"><path class="cls-4" d="M9.28,23a18,18,0,0,0,8,5.3c.2.05.34-.25.14-.35a27.59,27.59,0,0,1-7.83-5.25c-.19-.19-.48.1-.3.3Z" transform="translate(0 0)"/></g><g class="cls-6"><path class="cls-4" d="M11.4,25.66c3.36,2.11,7.38,3.94,11.4,4.17a.21.21,0,0,0,.05-.42c-4-1.08-7.62-2-11.22-4.14a.23.23,0,0,0-.23.39Z" transform="translate(0 0)"/></g><g class="cls-6"><path class="cls-4" d="M18.89,29c1.72.29,4,.26,5.4-.87.15-.12,0-.34-.18-.3-.81.17-1.57.52-2.39.66a9.19,9.19,0,0,1-2.77,0c-.26,0-.33.43-.06.47Z" transform="translate(0 0)"/></g><g class="cls-6"><path class="cls-4" d="M23.7,27.9a19.88,19.88,0,0,1-7.72.31c-.26,0-.27.34-.05.42a11.82,11.82,0,0,0,7.89-.33.21.21,0,0,0-.12-.4Z" transform="translate(0 0)"/></g><g class="cls-6"><path class="cls-4" d="M23.7,28.5a13.49,13.49,0,0,1-8-.7c-.2-.07-.32.24-.14.34a9.37,9.37,0,0,0,8.19.57.11.11,0,0,0-.06-.21Z" transform="translate(0 0)"/></g><g class="cls-6"><path class="cls-4" d="M21.39,28.84a14,14,0,0,1-5.72-1.37c-.22-.1-.41.2-.2.33a10.38,10.38,0,0,0,5.92,1.4.18.18,0,0,0,0-.36Z" transform="translate(0 0)"/></g><g class="cls-6"><path class="cls-4" d="M6,15.58a14.85,14.85,0,0,0,2.12,5.21.26.26,0,0,0,.44-.26,26.72,26.72,0,0,1-2.08-5.08c-.08-.32-.55-.18-.48.13Z" transform="translate(0 0)"/></g><g class="cls-6"><path class="cls-4" d="M6.43,16.67a12.74,12.74,0,0,0,2.8,6.19c.18.2.46-.05.35-.26a42.37,42.37,0,0,1-2.83-6,.17.17,0,0,0-.32.09Z" transform="translate(0 0)"/></g><path class="cls-4" d="M9.23,7.25c.25-.25.51-.49.74-.75s.44-.56.68-.82c0,0,0,0,0,0-.26.25-.55.44-.81.68s-.5.5-.75.75c-.09.1.06.25.15.15Z" transform="translate(0 0)"/><path class="cls-4" d="M14.73,3.62a17.31,17.31,0,0,1,7.37.49s0,0,0,0a16.9,16.9,0,0,0-7.38-.52s0,.07,0,.06Z" transform="translate(0 0)"/><path class="cls-4" d="M23.81,5.42a16.1,16.1,0,0,1,6.74,5.22c0,.06.15,0,.1-.06a15.3,15.3,0,0,0-6.81-5.26c-.06,0-.08.08,0,.1Z" transform="translate(0 0)"/><path class="cls-8" d="M9.1,24.81c-1.32,4.7,2.43,11.26,10.36,10.7s13-6.29,10.31-12.95a9.32,9.32,0,0,0-10-6.21C13.52,16.82,10.41,20.11,9.1,24.81ZM25.4,22c4.4,4.38.27,9-1.74,9.9A12.63,12.63,0,0,1,19.59,33c-4.37.58-10.92-5-4.7-11.26A7.51,7.51,0,0,1,25.4,22Z" transform="translate(0 0)"/><g class="cls-3"><path class="cls-4" d="M12.15,31.73a8.72,8.72,0,0,1-2.3-4.67c0-.21-.35-.15-.36.05A6.22,6.22,0,0,0,11.85,32c.21.18.5-.1.3-.3Z" transform="translate(0 0)"/></g><g class="cls-3"><path class="cls-4" d="M28.48,22.94c.8,1.54.55,3,.57,4.69,0,.15.23.19.26,0a6.76,6.76,0,0,0-.55-4.9.16.16,0,0,0-.28.17Z" transform="translate(0 0)"/></g><g class="cls-3"><path class="cls-4" d="M29,23.25a14.16,14.16,0,0,1-.23,6.44.16.16,0,0,0,.31.09,11,11,0,0,0,.26-6.62c0-.22-.39-.13-.34.09Z" transform="translate(0 0)"/></g><g class="cls-3"><path class="cls-4" d="M29.26,26.87a8.65,8.65,0,0,1-2.79,4.85c-.17.15.08.38.25.25a7.63,7.63,0,0,0,2.86-5c0-.21-.28-.31-.32-.09Z" transform="translate(0 0)"/></g><g class="cls-3"><path class="cls-4" d="M28.58,28.69a11.72,11.72,0,0,1-2.11,2.65A30.22,30.22,0,0,1,24,33.22a.11.11,0,0,0,.1.18c2.07-.68,3.72-2.75,4.69-4.61a.1.1,0,0,0-.18-.1Z" transform="translate(0 0)"/></g><g class="cls-3"><path class="cls-4" d="M27.3,31a14.93,14.93,0,0,1-6.62,3.49c-.21.06-.12.36.09.33a11.83,11.83,0,0,0,6.71-3.64A.13.13,0,0,0,27.3,31Z" transform="translate(0 0)"/></g><g class="cls-3"><path class="cls-4" d="M24.68,33c-2.58,1.16-5.26,1.28-8,1.92a.16.16,0,0,0,0,.31,19,19,0,0,0,8.1-1.92c.2-.11,0-.4-.18-.31Z" transform="translate(0 0)"/></g><g class="cls-3"><path class="cls-4" d="M19.53,34.43a11.82,11.82,0,0,1-6.3-1.1.22.22,0,0,0-.22.37,9.56,9.56,0,0,0,6.57,1.07c.19,0,.15-.37,0-.34Z" transform="translate(0 0)"/></g><g class="cls-3"><path class="cls-4" d="M12.91,32.53a18.75,18.75,0,0,1-3.12-7,.19.19,0,0,0-.37.05,10.83,10.83,0,0,0,3.21,7.17c.18.19.43-.08.28-.27Z" transform="translate(0 0)"/></g><g class="cls-3"><path class="cls-4" d="M10.41,28.62a7.47,7.47,0,0,1,.14-4.06,12.18,12.18,0,0,1,2.1-3.08c.12-.16-.11-.37-.27-.27C9.85,22.8,9.31,26,10,28.72a.2.2,0,0,0,.38-.1Z" transform="translate(0 0)"/></g><g class="cls-3"><path class="cls-4" d="M9.82,26.78a12.15,12.15,0,0,1,4.31-6.61c.2-.16-.05-.47-.26-.35a9.65,9.65,0,0,0-4.4,6.86c0,.23.29.33.35.1Z" transform="translate(0 0)"/></g><g class="cls-3"><path class="cls-4" d="M11.45,22.72a11.33,11.33,0,0,1,3.1-3.44c.24-.19-.07-.57-.32-.42a8.22,8.22,0,0,0-3.16,3.64c-.13.25.25.48.38.22Z" transform="translate(0 0)"/></g><g class="cls-3"><path class="cls-4" d="M11.71,21.85c.47-.44.85-1,1.32-1.4a19.29,19.29,0,0,1,1.62-1.24c.2-.15.1-.56-.19-.45a5.4,5.4,0,0,0-3,2.93.16.16,0,0,0,.27.16Z" transform="translate(0 0)"/></g><g class="cls-3"><path class="cls-4" d="M29.39,24.81c-.4-1.94-1.35-4.22-3-5.4-.12-.08-.28.09-.2.2.54.8,1.2,1.5,1.69,2.35A11.57,11.57,0,0,1,29,24.91c.06.25.43.14.37-.1Z" transform="translate(0 0)"/></g><g class="cls-3"><path class="cls-4" d="M28.89,23.12a9.15,9.15,0,0,0-5.34-4.94.19.19,0,0,0-.15.34,17.38,17.38,0,0,1,3,1.93,10.86,10.86,0,0,1,2.22,2.82c.09.16.33,0,.25-.15Z" transform="translate(0 0)"/></g><g class="cls-3"><path class="cls-4" d="M28,21.54a8.28,8.28,0,0,0-6.17-4c-.22,0-.26.32,0,.37a10.09,10.09,0,0,1,6,3.75c.1.13.32,0,.22-.13Z" transform="translate(0 0)"/></g><g class="cls-3"><path class="cls-4" d="M25.64,19.48a8.88,8.88,0,0,0-5.95-1.73.18.18,0,0,0,0,.35,14.67,14.67,0,0,1,5.79,1.65.16.16,0,0,0,.16-.27Z" transform="translate(0 0)"/></g><g class="cls-3"><path class="cls-4" d="M22.73,17.53a5,5,0,0,0-3.87.08c-.24.12-.06.45.17.4a7.82,7.82,0,0,1,3.6-.1.2.2,0,0,0,.1-.38Z" transform="translate(0 0)"/></g><g class="cls-3"><path class="cls-4" d="M21.88,17.13a11,11,0,0,0-3.92.4c-.23.08-.2.45.06.44a16.29,16.29,0,0,0,1.84-.26c.69-.1,1.38-.16,2.06-.28.18,0,.12-.29,0-.3Z" transform="translate(0 0)"/></g><g class="cls-6"><path class="cls-4" d="M12.14,32.17A8.94,8.94,0,0,1,9.56,26a.13.13,0,0,0-.26,0A7.61,7.61,0,0,0,12,32.31a.1.1,0,0,0,.14-.14Z" transform="translate(0 0)"/></g><g class="cls-6"><path class="cls-4" d="M10.73,30.09a6.89,6.89,0,0,1-.35-5.27c0-.13-.17-.22-.23-.09a5.79,5.79,0,0,0,.36,5.49c.08.15.3,0,.22-.13Z" transform="translate(0 0)"/></g><g class="cls-6"><path class="cls-4" d="M9.92,28a10.4,10.4,0,0,1,.55-3.8.13.13,0,0,0-.23-.1A5.62,5.62,0,0,0,9.63,28c0,.16.31.13.29,0Z" transform="translate(0 0)"/></g><g class="cls-6"><path class="cls-4" d="M9.89,27.63a6.65,6.65,0,0,1,.74-4,.17.17,0,0,0-.29-.17,5.13,5.13,0,0,0-.66,4.16c0,.12.23.1.21,0Z" transform="translate(0 0)"/></g><g class="cls-6"><path class="cls-4" d="M28.51,23a17.75,17.75,0,0,1,.71,2.42c0,.14.28.11.26,0a8.14,8.14,0,0,0-.66-2.47c-.08-.19-.39-.11-.31.09Z" transform="translate(0 0)"/></g><g class="cls-6"><path class="cls-4" d="M28.53,23.15a8.7,8.7,0,0,1,.69,4.09c0,.19.27.19.3,0a6.26,6.26,0,0,0-.84-4.16c0-.07-.19,0-.15.07Z" transform="translate(0 0)"/></g><g class="cls-6"><path class="cls-4" d="M28.65,22.36a9.35,9.35,0,0,1,1,4.82c0,.14.23.18.25,0a7.62,7.62,0,0,0-1-5c-.08-.15-.31,0-.23.14Z" transform="translate(0 0)"/></g><g class="cls-6"><path class="cls-4" d="M28.68,22.7c1.08,2.76.7,4.91-.72,7.45-.07.13.1.22.19.11a7.29,7.29,0,0,0,.77-7.63c-.06-.14-.3-.08-.24.07Z" transform="translate(0 0)"/></g><g class="cls-6"><path class="cls-4" d="M29.41,25.75a10.26,10.26,0,0,1-2.48,5.69c-.07.09.07.17.15.11a7.76,7.76,0,0,0,2.55-5.8c0-.15-.21-.15-.22,0Z" transform="translate(0 0)"/></g><g class="cls-6"><path class="cls-4" d="M28.51,28.93A13.67,13.67,0,0,1,27.09,31c-.5.6-1.09,1.11-1.59,1.7-.07.08,0,.21.11.15A9.09,9.09,0,0,0,28.69,29a.11.11,0,1,0-.18-.11Z" transform="translate(0 0)"/></g><g class="cls-6"><path class="cls-4" d="M28.41,29.16a11.08,11.08,0,0,1-3.25,3.66.11.11,0,1,0,.11.18,8.7,8.7,0,0,0,3.3-3.75c.05-.11-.1-.2-.16-.09Z" transform="translate(0 0)"/></g><g class="cls-6"><path class="cls-4" d="M25.49,32.46a22.84,22.84,0,0,1-5.65,2.61.1.1,0,0,0,.06.19,13.07,13.07,0,0,0,5.75-2.53c.17-.11,0-.39-.16-.27Z" transform="translate(0 0)"/></g><g class="cls-6"><path class="cls-4" d="M24.46,33.19a33.32,33.32,0,0,1-5.91,1.53.11.11,0,0,0,0,.22,14.49,14.49,0,0,0,6-1.51c.14-.06,0-.3-.1-.24Z" transform="translate(0 0)"/></g><g class="cls-6"><path class="cls-4" d="M23.3,33.81a28.51,28.51,0,0,1-5.44.92.11.11,0,0,0,0,.22,13,13,0,0,0,5.52-.87c.17-.06.1-.33-.08-.27Z" transform="translate(0 0)"/></g><g class="cls-6"><path class="cls-4" d="M20.31,34.25a13.56,13.56,0,0,1-5,0,.1.1,0,0,0,0,.2,9.46,9.46,0,0,0,5.17,0,.15.15,0,0,0-.08-.29Z" transform="translate(0 0)"/></g><g class="cls-6"><path class="cls-4" d="M17.18,34.52c-.88-.21-1.7-.55-2.57-.81a.11.11,0,0,0-.08.2,9.7,9.7,0,0,0,2.59.84c.14,0,.21-.19.06-.23Z" transform="translate(0 0)"/></g><g class="cls-6"><path class="cls-4" d="M21,17.6a12.87,12.87,0,0,0-6.57,1.66c-.13.07-.05.3.1.24A19,19,0,0,1,21,17.9a.15.15,0,0,0,0-.3Z" transform="translate(0 0)"/></g><g class="cls-6"><path class="cls-4" d="M18.57,17.46a17.53,17.53,0,0,0-7.61,4,.16.16,0,0,0,.19.24,31.53,31.53,0,0,1,7.51-3.9c.19-.06.11-.37-.09-.31Z" transform="translate(0 0)"/></g><g class="cls-6"><path class="cls-4" d="M13.22,19.81c-.91.71-2.07,2-2.09,3.21a.13.13,0,0,0,.24.06c.33-.49.49-1.08.81-1.59a6.49,6.49,0,0,1,1.28-1.44c.17-.15-.08-.37-.24-.24Z" transform="translate(0 0)"/></g><g class="cls-6"><path class="cls-4" d="M11.53,22.84a11.22,11.22,0,0,1,1.57-2.39c.59-.68,1.3-1.18,2-1.8.13-.12,0-.31-.19-.24a8.17,8.17,0,0,0-3.6,4.32c-.06.15.2.26.27.11Z" transform="translate(0 0)"/></g><g class="cls-6"><path class="cls-4" d="M11.22,22.55a9.18,9.18,0,0,1,1.7-2.26,11.45,11.45,0,0,1,2.47-1.59c.13-.07,0-.28-.11-.24a6.55,6.55,0,0,0-4.2,4c0,.08.1.13.14.06Z" transform="translate(0 0)"/></g><g class="cls-6"><path class="cls-4" d="M12.14,21.18a9.91,9.91,0,0,1,3.47-2.36c.15-.06.05-.29-.1-.25A7.25,7.25,0,0,0,12,21c-.1.12.07.3.18.18Z" transform="translate(0 0)"/></g><g class="cls-6"><path class="cls-4" d="M26.4,19.46a10.7,10.7,0,0,0-3.73-1.37c-.23,0-.34.28-.1.35a19,19,0,0,1,3.65,1.32c.2.11.38-.19.18-.3Z" transform="translate(0 0)"/></g><g class="cls-6"><path class="cls-4" d="M25.64,19.14a9,9,0,0,0-4.58-1.48A.16.16,0,0,0,21,18a28.19,28.19,0,0,1,4.5,1.38.12.12,0,0,0,.12-.21Z" transform="translate(0 0)"/></g><path class="cls-4" d="M29.23,25.09c0,.24,0,.49,0,.74s.08.5.1.75c0,0,0,0,0,0,0-.25,0-.5,0-.75s0-.5,0-.74-.15-.1-.14,0Z" transform="translate(0 0)"/><path class="cls-4" d="M28.51,29.69a11.81,11.81,0,0,1-3.76,3.62,0,0,0,1,0,0,0,11.88,11.88,0,0,0,3.79-3.61s0,0,0,0Z" transform="translate(0 0)"/><path class="cls-4" d="M23.24,33.59a11.35,11.35,0,0,1-5.94,1c-.06,0-.05.08,0,.09a10.93,10.93,0,0,0,6-1.06s0-.08,0-.06Z" transform="translate(0 0)"/><path class="cls-9" d="M7.85,23.6C-2.49,18.42,4,.83,15,2.08c.25,0,.25-.37,0-.4C3.6.46-3,18.74,7.7,23.86c.17.08.32-.17.15-.26Z" transform="translate(0 0)"/><path class="cls-9" d="M9.07,24.76c-3.71-3.5-5.43-9.26-3.17-14,.1-.2-.2-.37-.29-.18C3.27,15.46,5,21.38,8.88,25c.13.11.32-.08.19-.19Z" transform="translate(0 0)"/><path class="cls-9" d="M6.19,9.69c.87-2.27,1.94-4.17,4.11-5.32a19.08,19.08,0,0,1,5-2c.27-.06.15-.43-.1-.39A16.66,16.66,0,0,0,9.43,4.4C7.55,5.51,6.61,7.61,5.87,9.6c-.08.2.24.28.32.09Z" transform="translate(0 0)"/><path class="cls-9" d="M11.43,20.21c-2-4.83-.31-9.57,2.31-13.77a.21.21,0,0,0-.36-.21c-2.68,4.32-4.46,9.25-2.25,14.16.1.2.39,0,.3-.18Z" transform="translate(0 0)"/><path class="cls-9" d="M10.5,21.63C7.66,16,7.87,9.81,13.84,6.44c.19-.11,0-.38-.17-.29-6.28,3-6.56,10.16-3.4,15.62.08.15.31,0,.23-.14Z" transform="translate(0 0)"/><path class="cls-9" d="M20.31,6.21a22.38,22.38,0,0,1,2.62,9.84c0,.28.46.28.45,0A22.84,22.84,0,0,0,20.64,6c-.11-.22-.44,0-.33.19Z" transform="translate(0 0)"/><path class="cls-9" d="M14.15,18.17c-.32-5.51,1.48-9.24,6.22-12.06a.19.19,0,0,0-.2-.33c-5,2.59-6.82,6.92-6.35,12.39,0,.21.34.22.33,0Z" transform="translate(0 0)"/><path class="cls-9" d="M17.48,24.87A41.2,41.2,0,0,1,15.3,21.2c-.1-.19-.38,0-.28.16A33.67,33.67,0,0,0,17.24,25c.1.15.33,0,.24-.13Z" transform="translate(0 0)"/><path class="cls-9" d="M17.5,24.84a3.86,3.86,0,0,0,2.6-1.6A11.83,11.83,0,0,0,22.22,20c.12-.25-.25-.47-.37-.22-.78,1.75-2.31,4.44-4.38,4.8-.16,0-.12.27,0,.27Z" transform="translate(0 0)"/><path class="cls-9" d="M15.59,21.07a7.79,7.79,0,0,1,6.5-1,.21.21,0,0,0,.12-.41,7.82,7.82,0,0,0-6.79,1.13c-.17.12,0,.41.17.29Z" transform="translate(0 0)"/><path class="cls-9" d="M14.26,18.09A24.49,24.49,0,0,1,18,17c1.31-.25,3.62-.77,4.92-.11.16.08.36-.14.21-.27-.93-.79-2.47-.42-3.57-.29a21.66,21.66,0,0,0-5.43,1.38c-.21.08-.12.42.1.34Z" transform="translate(0 0)"/><path class="cls-9" d="M22.47,6.67c2,3.24,2.37,6.86,2.48,10.6a.23.23,0,0,0,.11.19,7.41,7.41,0,0,1,4.3,5.26c.07.29.51.16.45-.12a7.92,7.92,0,0,0-1.57-3.37c-1.08-1.31-2.51-1.72-2.91-3.49-.74-3.31-.64-6.22-2.55-9.25-.12-.19-.43,0-.31.18Z" transform="translate(0 0)"/><path class="cls-9" d="M22.53,6.44c6,3.34,10.38,9.51,7.28,16.47-.12.27.26.51.4.24,3.57-6.94-1.48-13.71-7.52-17a.16.16,0,0,0-.16.28Z" transform="translate(0 0)"/><path class="cls-9" d="M12.85,24.44c1.91,1.71,5.09,2.43,7.55,2.77a9.2,9.2,0,0,0,6.85-1.47c.22-.15,0-.51-.21-.36-3.6,2.54-10.59,1.75-13.94-1.18-.17-.14-.41.09-.25.24Z" transform="translate(0 0)"/><path class="cls-9" d="M23,20.6a7.83,7.83,0,0,1,4.86,5.12.22.22,0,0,0,.43-.12A7.22,7.22,0,0,0,23,20.29a.16.16,0,0,0-.08.31Z" transform="translate(0 0)"/><path class="cls-9" d="M12.44,28.41a12.3,12.3,0,0,0,14.61.1c.19-.14,0-.46-.19-.32a12.29,12.29,0,0,1-14.28,0c-.15-.1-.29.14-.14.25Z" transform="translate(0 0)"/><path class="cls-9" d="M21.17,30.83a14.13,14.13,0,0,0,1.45.58,4,4,0,0,0,1.52.3c.11,0,.17-.16.06-.21a6.38,6.38,0,0,0-1.29-.38,13,13,0,0,1-1.59-.56c-.18-.07-.33.18-.15.27Z" transform="translate(0 0)"/><path class="cls-9" d="M11.9,26c-.46,7.46,10.1,9.17,14.33,4.44.18-.2-.11-.5-.3-.3C21.82,34.48,12.1,33.1,12.2,26c0-.2-.29-.2-.3,0Z" transform="translate(0 0)"/><path class="cls-9" d="M22.22,3c8.31,3.49,17.55,15.77,7.63,23.39-.25.19,0,.62.25.43,10.15-7.44,1-20.82-7.82-24-.13,0-.17.15-.06.19Z" transform="translate(0 0)"/><path class="cls-9" d="M29.75,28.2c5.19-.46,8.54-4.84,8.4-10-.16-6-4.46-10.8-9.9-12.87-.28-.1-.4.35-.12.46,4.62,1.77,8.41,5.44,9.37,10.44,1.06,5.52-2,10.89-7.78,11.71-.13,0-.1.24,0,.22Z" transform="translate(0 0)"/><path class="cls-9" d="M21.13,2.62c7.55.13,14.5,3.18,18.08,10.23a12.85,12.85,0,0,1,.06,11.45c-2,3.87-5.85,5.37-9.68,6.86-.25.1-.15.5.11.41,7.2-2.43,12.92-7.54,11-15.83C38.67,6.62,29.65,2.19,21.13,2.4a.11.11,0,0,0,0,.22Z" transform="translate(0 0)"/><path class="cls-9" d="M14.78,6.14a13.11,13.11,0,0,1,7.19,0,.16.16,0,0,0,.09-.31,10.82,10.82,0,0,0-7.36,0c-.18.06-.1.34.08.28Z" transform="translate(0 0)"/><path class="cls-9" d="M15.68,35c-7.49-2.11-8.33-12.08-2.19-16.24.22-.15,0-.52-.22-.37-6.43,4.28-5.59,14.93,2.33,16.9a.15.15,0,0,0,.08-.29Z" transform="translate(0 0)"/><path class="cls-9" d="M9,26.3c-7.46-2.12-10.35-11-7.44-17.89C4.56,1.27,12.31-1.5,19,2.34A.2.2,0,0,0,19.2,2C12.51-2.17,4.08.79,1.09,8.22-1.77,15.32,1,24.69,8.9,26.62A.17.17,0,0,0,9,26.3Z" transform="translate(0 0)"/></g></g></g></svg>