<svg xmlns="http://www.w3.org/2000/svg" xmlns:xlink="http://www.w3.org/1999/xlink" viewBox="0 0 29.12 34.59"><defs><style>.cls-1{isolation:isolate;}.cls-2{fill:url(#radial-gradient);}.cls-16,.cls-3{opacity:0.2;}.cls-11,.cls-3{mix-blend-mode:multiply;}.cls-4{fill:#dde196;}.cls-5{opacity:0.08;}.cls-6{fill:#e2e8be;}.cls-7{fill:#36180f;}.cls-8{opacity:0.15;}.cls-13,.cls-16,.cls-8{mix-blend-mode:overlay;}.cls-9{fill:#fff;}.cls-10{fill:url(#radial-gradient-2);}.cls-11,.cls-13{opacity:0.1;}.cls-12{fill:#b9c07a;}.cls-14{fill:url(#radial-gradient-3);}.cls-15{fill:#d8e07b;}</style><radialGradient id="radial-gradient" cx="-299.45" cy="212" fy="203.7266078508377" r="9.66" gradientTransform="matrix(-0.9, -0.43, 0.51, -1.06, -369.78, 111.46)" gradientUnits="userSpaceOnUse"><stop offset="0.17" stop-color="#d1d58c"/><stop offset="0.45" stop-color="#b6bc45"/><stop offset="0.89" stop-color="#748829"/></radialGradient><radialGradient id="radial-gradient-2" cx="-298.16" cy="117.39" r="10.69" gradientTransform="matrix(-0.84, 0.54, -0.97, -1.51, -115.3, 348.58)" gradientUnits="userSpaceOnUse"><stop offset="0" stop-color="#95a56a"/><stop offset="0.51" stop-color="#5c6b25"/></radialGradient><radialGradient id="radial-gradient-3" cx="-246.91" cy="277.04" fx="-254.48170047401968" fy="285.46890104803936" r="11.33" gradientTransform="matrix(0.19, -0.92, 0.86, 0.33, -173.55, -289.26)" gradientUnits="userSpaceOnUse"><stop offset="0.21" stop-color="#eaedd8"/><stop offset="0.61" stop-color="#d8e091"/><stop offset="1" stop-color="#a8b94b"/></radialGradient></defs><g class="cls-1"><g id="Capa_2" data-name="Capa 2"><g id="Capa_1-2" data-name="Capa 1"><path class="cls-2" d="M2.79,24.08c3.55,2.54,7.78.12,9.62-3.15s3.12-9.22.46-11.35S5.3,9.66,2.52,13.42C-.52,17.55-1,21.34,2.79,24.08Z" transform="translate(-0.07)"/><g class="cls-3"><path class="cls-4" d="M6.86,23.87c3.36-.66,6.76-3.06,6.93-6.79.1-2-.13-4.72-1.92-6-1-.73-1.91.91-1,1.64,1.26,1,1.13,3.09.62,4.34-1,2.48-3.18,3.74-5.56,4.75-1.25.54-.3,2.32.89,2.09Z" transform="translate(-0.07)"/></g><g class="cls-3"><path class="cls-4" d="M9.92,17.76c1.75-1.25,3.89-2.48,4.2-4.84.27-2.12-1.8-4.65-4-3.47a6.32,6.32,0,0,0-2.77,5.78,2.25,2.25,0,0,0,3.72,1.58C13,15.12,12.83,7.74,9.1,9c-1.47.51-3.45,3.23-3.34,4.83.16,2.13,2.45,1.33,3.5.49s2.69-2.92,1.19-4.28c-1.07-1-2.59-.31-3.55.5A6.54,6.54,0,0,0,5,15.19a1.23,1.23,0,0,0,1.85,1.06c1.15-.77,3.64-2.12,3.58-3.83-.06-1.54-1.76-1.64-2.91-1.42s-2.7.84-3.13,2a1.12,1.12,0,0,0,1,1.65c.36,0,.44-.56.09-.63C3,13.48,2,16.31,1.59,18.11c-.22,1,1.36,1.38,1.5.41,0-.23,1.12-5.29,2-4.06l.5-.39c-.24-.27,0,0-.23.12.21-.09.47-.18.69-.25.54-.16,1.08-.34,1.62-.46a2.27,2.27,0,0,0,.61-.13c.06,0,.27,0,.32,0-.13.14-.48-1.21-.56-1.21s-.57.61-.68.71a17.41,17.41,0,0,1-1.77,1.29l1.85,1.06a5.8,5.8,0,0,1,1.09-2.78c.14-.22,1.34-.73.1-.92-.19,0,.18,0-.11.09-.06,0-1.37,1.22-1.38,1.26.57,1.21.93,1.54,1.07,1a.81.81,0,0,1,.11-.27,4.21,4.21,0,0,0,.47-.8,14.48,14.48,0,0,1,1.12-1.46c-.39.46-.32-.59-.2.46a10,10,0,0,1,.16,1.35,4.74,4.74,0,0,1-.13,1.25c-.05.19-.15.39-.2.57-.2.8.14-.25.09.1a7,7,0,0,1,.95-2.94c.39-.55.56-.89,1.09-.44.79.67.19,1.74-.26,2.37A23.34,23.34,0,0,1,9,16.59c-.57.59.19,1.69.9,1.17Z" transform="translate(-0.07)"/></g><g class="cls-3"><path class="cls-4" d="M10.47,20.39c1.87-1.83,4.79-5.8,2.68-8.44-1.93-2.42-6.16-.89-8,.84-1,.9.25,2.12,1.29,1.67,1.23-.53,3.77-2.28,5.09-1,1.6,1.57-1,5-1.76,6.36a.44.44,0,0,0,.69.54Z" transform="translate(-0.07)"/></g><g class="cls-3"><path class="cls-4" d="M2.22,20.22c.08-2,2.19-4.52,3.35-6a10.86,10.86,0,0,1,2.59-2.56c1-.65,1.23-.23,2.22.15a.74.74,0,0,0,.94-.71,2.09,2.09,0,0,0-2.59-1.7C7.26,9.64,6,10.91,5.09,12A22.39,22.39,0,0,0,2,16.6,8.44,8.44,0,0,0,.8,20.22a.71.71,0,0,0,1.42,0Z" transform="translate(-0.07)"/></g><g class="cls-5"><path class="cls-6" d="M9.77,18.71a1.67,1.67,0,0,0-.28-1.24.81.81,0,0,0-1.27.19,2.32,2.32,0,0,0-.18.46A16.77,16.77,0,0,0,7.57,21a17.58,17.58,0,0,0-.16,3c0,.24,0-.29,0-.15s0,.26-.05.39a.31.31,0,0,0,0,.1l0-.29,0,.31a.89.89,0,0,0,0,.32.09.09,0,0,1,0,.05,1.56,1.56,0,0,0,.38.73,1.28,1.28,0,0,0,1.79,0A1.8,1.8,0,0,0,10,25,10.16,10.16,0,0,0,10.6,23c.12-.5.23-1,.33-1.51a16.45,16.45,0,0,0,.42-2.29,9.11,9.11,0,0,0,0-1.17,1.09,1.09,0,0,0-.78-1,1.06,1.06,0,0,0-1.19.48,11.54,11.54,0,0,0-.5,1.27,7.73,7.73,0,0,0-.2,1c-.11.56-.21,1.12-.32,1.67-.15.72-.3,1.43-.47,2.14,0,.18-.1.36-.16.54s.18-.36.08-.2l0,.07c-.06.14.19-.23.15-.19s.32-.22.21-.16a1.18,1.18,0,0,1,1.37.18c-.06,0,.22.35.13.15,0,0,.13.39.09.22s0-.06,0-.08a1.62,1.62,0,0,0-.31-.54s.24.31.16.19.09.22.07.17a.3.3,0,0,0,0-.1l0,.22V24a2.64,2.64,0,0,1,0-.28c0-.21,0-.42,0-.63,0-.5,0-1,0-1.5,0-.95,0-1.89.08-2.83,0-.15,0-.29,0-.44s0,.28,0,.12a.64.64,0,0,0,0-.07s0-.07,0-.1c0,.35-.58.61-.9.5a.76.76,0,0,1-.44-.33c.06.08,0,0-.06-.14,0,.11.07.23.09.34s0,.19,0,.28a.71.71,0,0,0,1.4-.19Z" transform="translate(-0.07)"/></g><g class="cls-5"><path class="cls-6" d="M5.88,23.29a5.15,5.15,0,0,0,3.67-1.51c.83-1,1.62-2.84.83-4a1,1,0,0,0-1.63,0c-.52.74-.33,1.78-.89,2.53a3.63,3.63,0,0,1-2.22,1.24.9.9,0,0,0,.24,1.76Z" transform="translate(-0.07)"/></g><g class="cls-5"><path class="cls-6" d="M6.55,22.71c3.52.76,7-4.39,4.65-7.26a.79.79,0,0,0-1.25.16c-.5,1.16-.22,2.51-.85,3.65s-1.92,1.57-2.81,2.48a.59.59,0,0,0,.26,1Z" transform="translate(-0.07)"/></g><g class="cls-5"><path class="cls-6" d="M9.31,19.53a2,2,0,0,0,.18-1.73c-.11-.25-.12-.28,0-.08,0,0,0,0,0-.08a1.36,1.36,0,0,0-.13-.3A2.37,2.37,0,0,0,9,17a2,2,0,0,0-.87-.48,1.81,1.81,0,0,0-2,.81,2.49,2.49,0,0,0-.39,1,3,3,0,0,0,.14,2,1.11,1.11,0,0,0,2-.26,4.49,4.49,0,0,0,0-1.27c0-.07,0-.14,0-.2s-.07.25,0,0,.06-.2.08-.29-.11.22,0,.06.11-.15,0,0,0,0,0,0-.22.15-.08.06-.24.07,0,0-.28,0-.12,0,.16,0,0,0,0,0,.07,0-.21-.12-.1,0a.24.24,0,0,0,.11.06c.13.05-.13-.13-.08-.06s.06.05.08.08.47.32.14.07c-.1-.07,0,0,0,0A.47.47,0,0,0,8,18.7c.06.08,0,0,0-.07a.65.65,0,0,0,0,.13s0,.17,0,0,0,0,0,.05V19c0-.12,0-.08,0,0a.69.69,0,0,0,1.26.53Z" transform="translate(-0.07)"/></g><g class="cls-5"><path class="cls-6" d="M9.94,19.5a1.68,1.68,0,0,0,1.19-2,.58.58,0,0,0-1.13.15.71.71,0,0,1-.39.71.61.61,0,0,0,.33,1.18Z" transform="translate(-0.07)"/></g><g class="cls-5"><path class="cls-6" d="M11.63,9.9c-3.36.06-6.56,1.63-7.73,5a.39.39,0,0,0,.65.37c2-2.39,3.86-4,7.08-4a.65.65,0,0,0,0-1.29Z" transform="translate(-0.07)"/></g><g class="cls-5"><path class="cls-6" d="M10.8,10.37a9.15,9.15,0,0,0-7.55,4c-.24.37.28.72.58.45,2.09-1.83,4.14-3.22,7-3.52.55-.06.58-.91,0-.88Z" transform="translate(-0.07)"/></g><g class="cls-5"><path class="cls-6" d="M7.84,10a6.49,6.49,0,0,0-3.62,3.1c-.16.36.27.76.58.45a11.37,11.37,0,0,1,3.4-2.69c.48-.21.13-1.06-.36-.86Z" transform="translate(-0.07)"/></g><g class="cls-5"><path class="cls-6" d="M9.91,21.11c1.52-1.74,3.12-5,1.83-7.23a.86.86,0,0,0-1.56.2c-.24,1,0,2-.24,3.08a8.23,8.23,0,0,1-1.25,3c-.49.73.63,1.61,1.22.94Z" transform="translate(-0.07)"/></g><g class="cls-5"><path class="cls-6" d="M10.24,21.09a7.85,7.85,0,0,0,3-4.95c.21-1.68-.15-3.91-1.67-4.86a.84.84,0,0,0-1.26.72c-.1,1.32.71,2.48.68,3.83a6.13,6.13,0,0,1-1.92,4,.86.86,0,0,0,1.21,1.21Z" transform="translate(-0.07)"/></g><g class="cls-5"><path class="cls-6" d="M9.25,19.8l-.73.53-.3.21-.15.1c-.13.09-.19,0,.13,0l.36-.05a1.63,1.63,0,0,0-.83.24l-.2.14a2.11,2.11,0,0,1-.33.18L7.55,21a.86.86,0,0,1-.21.07L7.73,21H7.64L8,21,8,21l.35.15,0,0,.3.23s0,0,0,0l.23.29,0,0,.14.34a.29.29,0,0,1,0-.09l.05.38a1.2,1.2,0,0,1,0-.19l-.05.38A1.74,1.74,0,0,0,8.92,22a3.47,3.47,0,0,0-.06-.45l.05.37v-.05l-.05.36L8.92,22s0-.08,0-.12c0-.21-.18.3-.06.15s.13-.19.19-.28-.22.28-.09.12l.12-.15a2.73,2.73,0,0,1,.23-.25c.23-.21-.24.18-.07,0a3.35,3.35,0,0,0,.4-.33A3,3,0,0,0,10.46,20a1.26,1.26,0,0,0-.32-1.24,1.34,1.34,0,0,0-1.24-.33,2.26,2.26,0,0,0-1.16.74,5.21,5.21,0,0,0-.62.84,4.41,4.41,0,0,0-.35.53,1.09,1.09,0,0,0-.08.15c-.07.15.21-.26.11-.14s-.23.3-.34.45l-.06.1c-.1.18.16-.23.14-.18s-.2.23-.26.33a2.17,2.17,0,0,0-.17.42,2,2,0,0,0,0,1,1.66,1.66,0,0,0,2,1.16,2.5,2.5,0,0,0,.72-.34l.52-.4a2,2,0,0,0,.53-.86l-.34.59a11,11,0,0,0,1.1-1.62A1,1,0,0,0,10.49,20a1,1,0,0,0-1.24-.16Z" transform="translate(-0.07)"/></g><g class="cls-5"><path class="cls-6" d="M2.78,22.56C4,23,5.3,23.43,6.58,23.8l.85.26.2.06.06,0a.9.9,0,0,1-.42-.24L7,23.45H7l.26-1h0l.45-.26c.11,0,.43-.07.52,0h0l-.11,0-.36-.11c-.35-.11-.71-.23-1.06-.37l-.3-.12.09,0-.17-.08a6.45,6.45,0,0,1-.59-.29,4.94,4.94,0,0,1-.49-.3c-.15-.1.06,0,.1.09a.76.76,0,0,0-.09-.09c-.06-.05-.11-.11-.16-.16s.18.27.09.11-.09-.19,0,0,0,.09,0,0,0,.36,0,.18c0,.28,0,.31,0,.17s0-.06,0-.09-.14.3,0,.14.08-.1,0,.05-.09.11.09-.12a.6.6,0,0,0,.1-.25,1,1,0,0,0-.93-1.22,1.35,1.35,0,0,0-1.23.95,1.48,1.48,0,0,0,.12,1.09,2.84,2.84,0,0,0,1.09,1A12.86,12.86,0,0,0,7.13,24a1.48,1.48,0,0,0,1.58-.1,1,1,0,0,0,.26-1c-.11-.7-1.13-.86-1.69-1A40.69,40.69,0,0,0,3.19,21a.79.79,0,0,0-.41,1.52Z" transform="translate(-0.07)"/></g><g class="cls-5"><path class="cls-6" d="M4,23.23A5.72,5.72,0,0,0,9.13,21.1C9.6,20.42,8.7,19.6,8,20a7.08,7.08,0,0,1-4,1.41c-1.17,0-1.16,1.76,0,1.82Z" transform="translate(-0.07)"/></g><g class="cls-5"><path class="cls-6" d="M2.34,21.71a2.15,2.15,0,0,0,1.59,1.54A1.15,1.15,0,0,0,5.05,23l0,0-.73.31c-.19,0,.25,0,.36,0a1.93,1.93,0,0,0,.42-.05,1.55,1.55,0,0,0,.74-.46,2.78,2.78,0,0,0,.61-1.54c.11-.63,0-1.28,0-1.92,0-.14,0-.28,0-.43s0-.15,0-.23c0,.1,0,.11,0,0a1.77,1.77,0,0,0-.06-1.28,1.05,1.05,0,0,0-1.16-.47c-1.28.19-1.22,2.21-1.22,3.14,0,.44,0,.87,0,1.32,0,.22,0,.13,0,.06.06.09-.21.25,0,0s.4-.32.69-.18l.48.63c-.18-.94-1.69-1.32-2.48-1.14a.78.78,0,0,0-.53.94Z" transform="translate(-0.07)"/></g><g class="cls-5"><path class="cls-6" d="M7.11,22.21c.6-1.19-.27-2.1-1.24-2.71-.21-.13-.44-.24-.66-.38s-.24-.2-.28-.22-.06-.21,0,0c0-.19,0,0,0-.19a1.63,1.63,0,0,0,0-1.4,1,1,0,0,0-1.12-.45c-.9.15-1.19,1.26-1.15,2a2.42,2.42,0,0,0,.9,1.72,5.88,5.88,0,0,0,1.6.9,3.68,3.68,0,0,1,.46.21c.21.11-.11,0,.06.06a.29.29,0,0,1-.11-.26c-.2.9,1.1,1.56,1.56.66Z" transform="translate(-0.07)"/></g><path class="cls-7" d="M4,24.47C-1.07,22.87.37,17.24,2.31,14s8.38-7.92,11.52-3.07a.2.2,0,0,0,.34-.2c-2.7-4.62-9.45-1-11.69,2.27C0,16.61-1.85,23.06,3.9,24.81c.22.07.31-.27.09-.34Z" transform="translate(-0.07)"/><path class="cls-7" d="M5.13,25c2.33.39,5.52-1.62,6.87-3.41a13.49,13.49,0,0,0,2.28-9.44c0-.27-.44-.28-.42,0a14.55,14.55,0,0,1-1.44,8c-1.2,2.25-4.4,5-7.2,4.58-.21,0-.3.29-.09.32Z" transform="translate(-0.07)"/><g class="cls-8"><path class="cls-9" d="M4.08,15c-2.83,1.86-2.84,7.48.55,8.81a4.91,4.91,0,0,0,4.89-.95c1.21-1,2.77-3.22,1.93-4.81a.79.79,0,0,0-.89-.36c-1.87.44-2.11,3.34-4.27,3.51-2.42.19-1.9-3.73-1-4.95.56-.74-.52-1.73-1.25-1.25Z" transform="translate(-0.07)"/></g><g class="cls-8"><path class="cls-9" d="M2.61,19.4a2.31,2.31,0,0,0,1.45,2.75A3.73,3.73,0,0,0,8,22c.38-.31,0-.9-.38-.91a13.35,13.35,0,0,1-2.28,0c-.57-.11-1.66-.51-1.39-1.28s-1-1.18-1.33-.36Z" transform="translate(-0.07)"/></g><g class="cls-8"><path class="cls-9" d="M2.7,20.88A2.43,2.43,0,0,0,4.1,23a2.13,2.13,0,0,0,2.62-.8c.29-.5-.26-.93-.73-.73-.94.42-2.11.49-2.52-.69-.13-.39-.79-.36-.77.11Z" transform="translate(-0.07)"/></g><path class="cls-10" d="M26.3,18.91c-4.48,2.7-8.87-2.8-10.61-6.78S13.1,2.45,16.24.63c2.48-1.43,6.52.58,10.16,7S28.42,17.64,26.3,18.91Z" transform="translate(-0.07)"/><g class="cls-11"><path class="cls-12" d="M25.53,11.92a17.42,17.42,0,0,1,0-5.49c0-.08.18-.45,0-.07,0-.07.19-.25,0-.08s.37-.14.07-.08c.09,0-.16.12,0,.06-.35.17-.37.27-.66.28.05,0-.41-.06-.17,0-.21,0-.25,0-.13,0s-.26-.21-.07,0a1.9,1.9,0,0,1,.19.21c-.17-.22,0,0,.13.21s.21.37.31.56a1.59,1.59,0,0,1,.12.27c-.16-.37,0,0,0,.06s.13.39.18.58a2.44,2.44,0,0,1,.06.26c.08.34,0-.18,0,0s0,.15,0,.22c0,.26,0,0,0-.06-.14.21.16-.21.15-.2a1.09,1.09,0,0,1,.38-.22c.33-.18.16-.1.06,0,.22-.16.25.18,0,0s.2.12-.1,0a7.45,7.45,0,0,1-.92-.58,24.2,24.2,0,0,0-2.83-2.3A1.21,1.21,0,0,0,20.74,7a9.94,9.94,0,0,0,3.1,3,4.62,4.62,0,0,0,2.31,1,2.09,2.09,0,0,0,2.11-2.55,6.74,6.74,0,0,0-1.51-3.54c-.85-1-2.47-1.53-3.3-.14a4.19,4.19,0,0,0-.32,2.52,39.74,39.74,0,0,0,.81,4.84c.2.87,1.67.7,1.59-.22Z" transform="translate(-0.07)"/></g><g class="cls-11"><path class="cls-12" d="M17.9,1.75A4.63,4.63,0,0,0,15,4.94a4,4,0,0,0,.41,3.35A2.46,2.46,0,0,0,18,9.62c1.55-.44,1.54-2.23.94-3.41-.9-1.77-3.55-.51-3.11,1.31a3,3,0,0,0,.09.32c.13.32,0,0,0-.12,0,.46.31.24,1-.66.36-.7.79-.9,1.28-.59-.18-.1.18.14.18.15.37.36.08.06,0-.12.26.41,0-.11-.07-.31l-.06-.32c-.07-.32,0,.19,0,0s0-.25,0-.38c0,.27.09-.08,0,0C18.58,5,19,4.25,19.4,3.7a1.34,1.34,0,0,0-1.5-1.95Z" transform="translate(-0.07)"/></g><g class="cls-11"><path class="cls-12" d="M17.8,3.59l.91.7-.17-.13,1.14.89c.4.32.8.62,1.21.93l.54.41-.2-.16c.61.47,1.21,1,1.79,1.46A15.61,15.61,0,0,1,24.2,8.81c.15.16.3.32.43.49l-.16-.2a3.58,3.58,0,0,1,.31.45,1.17,1.17,0,0,0,0,.11l-.1-.24a1.17,1.17,0,0,1,.05.2l0-.27v.11l0-.27a.19.19,0,0,1,0,.08l.1-.24a.16.16,0,0,1,0,.07L25,8.9,24.92,9l.2-.16a.24.24,0,0,1-.11.06l.24-.1a.71.71,0,0,1-.25.06l.27,0a2.91,2.91,0,0,1-.59,0l-.2,0,.26,0a2.7,2.7,0,0,0-.28,0l.26,0c-.3-.05-.61-.06-.91-.09l-.19,0,.23,0-.4-.05a1.88,1.88,0,0,0-.81-.07h.41l-.81-.28.19.08c-.39-.25-.75-.53-1.12-.8L21,7.34l.24.19-.09-.07.32.54a1.33,1.33,0,0,0-.32-.55l-.26-.2h0l-.08,0-.14-.08-.27-.17-.56-.35-.31-.2L20,6.9a1.47,1.47,0,0,0-.53-.52l0,0-.07,0-.13-.08L19,6.09l-.52-.32c-.33-.21-.65-.42-1-.64L17,4.77,17.3,5c-.21-.16-.41-.33-.61-.5s-.34-.3-.5-.47A2.41,2.41,0,0,1,16,3.8l.24.31A2,2,0,0,1,16,3.72l.16.38a2.17,2.17,0,0,1-.07-.24l.06.42a.48.48,0,0,1,0-.17l-.06.41a.74.74,0,0,1,0-.14L16,4.75A.54.54,0,0,1,16,4.62l-.24.31a.67.67,0,0,1,.15-.14L15.62,5a1.87,1.87,0,0,1,.31-.17L15.56,5a3.49,3.49,0,0,1,.7-.2l.25,0-.41.06c.48-.06,1-.07,1.44-.1h.24c.22,0,.42,0,.65-.07l-.4.06a1.59,1.59,0,0,0,.77-.21A1.64,1.64,0,0,0,19.34,4l0,0,.05-.07L19,4.32A1.47,1.47,0,0,0,19.38,4l-.79.32h0A.86.86,0,0,0,19,4.27,1,1,0,0,0,19.39,4a1.12,1.12,0,0,0,.32-.79,1.1,1.1,0,0,0-.32-.78l-.22-.17a1.12,1.12,0,0,0-.56-.15h0l1,.54-.1-.12a.79.79,0,0,0-.31-.29l0,0-.05,0L19,2.16l.45.45-.05-.09,0,0A1.54,1.54,0,0,0,18,1.74l.4.06a5.71,5.71,0,0,0-.82-.09l-.4,0c-.23,0-.47,0-.7,0s-.66.07-1,.12l-.47.1a4.7,4.7,0,0,0-.74.28,3.16,3.16,0,0,0-.58.4,2.18,2.18,0,0,0-.41.49,1.69,1.69,0,0,0-.24.57,3.55,3.55,0,0,0-.06.47v.05a3.07,3.07,0,0,0,.06.53,2.5,2.5,0,0,0,.24.61,2.15,2.15,0,0,0,.14.26,6.65,6.65,0,0,0,.46.59,5.67,5.67,0,0,0,.62.58,10.29,10.29,0,0,0,1.14.82l1,.58c.37.19.74.38,1.11.55l.14.07.07,0,0,0a1.37,1.37,0,0,0,.74.2L18.4,9c.39.15.78.29,1.18.42l.34.11-.3-.12h0a.83.83,0,0,0,.46.14.91.91,0,0,0,.49,0,.81.81,0,0,0,.3-.13l-.95.13c.57.1,1.14.18,1.71.25l.38.05-.2,0a1.72,1.72,0,0,1,.21.07l.2.08.4.13-.34-.2a1,1,0,0,0,.44.25l.47.21.54.21a4.42,4.42,0,0,0,.48.15l.68.09h.36a2,2,0,0,0,.53-.09,1.48,1.48,0,0,0,.61-.37,1.42,1.42,0,0,0,.37-.9,2,2,0,0,0-.34-1.09,3.3,3.3,0,0,0-.22-.3l.16.21a8,8,0,0,0-.75-.89c-.31-.31-.63-.6-1-.89-.5-.43-1-.84-1.56-1.25s-1.2-.9-1.82-1.33c-.35-.26-.73-.49-1.1-.72l-1.24-.77-.32-.19A.82.82,0,0,0,18,2.12a.8.8,0,0,0-.48.37.79.79,0,0,0-.08.62l.08.19a.81.81,0,0,0,.29.29Z" transform="translate(-0.07)"/></g><g class="cls-11"><path class="cls-12" d="M20.72,2.24c-1.07-1-2.41-2.26-4-1.49-1.39.68-1.83,2.47-1.7,3.88a1.29,1.29,0,0,0,1.1,1.25A1.26,1.26,0,0,0,17.52,5c.1-.51.16-1,.29-1.55a.8.8,0,0,1,.13-.36C18,3,18,3,17.94,3s-.14,0,0,0h.36a3.7,3.7,0,0,1,1.35.55.89.89,0,0,0,1.07-1.39Z" transform="translate(-0.07)"/></g><g class="cls-11"><path class="cls-12" d="M19.7,1.54C16.19.17,14.25,2.79,14.62,6.12c.24,2.11.88,5.47,2.85,6.7a.73.73,0,0,0,1.08-.62c.15-1.22-.63-3.28-1-4.76a7.34,7.34,0,0,1-.35-3.05c.22-1.15,1.22-1.1,2.25-1s1.16-1.49.25-1.84Z" transform="translate(-0.07)"/></g><g class="cls-11"><path class="cls-12" d="M17,10.19c.89,2.8,2,6.59,4.85,8a.33.33,0,0,0,.44-.45c-.78-1.29-1.79-2.42-2.52-3.75s-1.41-2.74-2-4.14c-.19-.42-.88-.12-.74.31Z" transform="translate(-0.07)"/></g><g class="cls-13"><path class="cls-6" d="M25.94,13.81s-.27.21-.14.16l.12-.05a4.15,4.15,0,0,0,.34-.24l-.76.1a1.46,1.46,0,0,0,1.1-.21,2.23,2.23,0,0,0,.63-.67.94.94,0,0,0,.09-.12s-.28.33-.16.2l0,0c.15-.16.26-.16-.13.07h0a1.42,1.42,0,0,1-.67.17,1.37,1.37,0,0,1-1.17-.67,1.39,1.39,0,0,1-.18-.66l.06.4c-.05-.35-.06-.46-.05-.33v.16c0,.16-.07.68,0,.11a1.71,1.71,0,0,0,.16,1.14,1.49,1.49,0,0,0,.51.58l-.49-1.22c-.08.37-.16.75-.25,1.12a4.7,4.7,0,0,0-.17.83,1,1,0,0,0,1.85.51,4.84,4.84,0,0,0,.3-.8c.12-.36.24-.72.35-1.09l-.76.75c.88-.14,1.29-1.23,1.3-2a1.51,1.51,0,0,0-.21-.88,1.45,1.45,0,0,0-2-.51c-.86.53-1.51,2.16-.64,2.93l-.29-.7c0,.38,0,1,.42,1.18a.55.55,0,0,0,.75-.19Z" transform="translate(-0.07)"/></g><g class="cls-13"><path class="cls-6" d="M23.8,8.68a4.8,4.8,0,0,1,1.53,2.45c.22.78.11,1.79.73,2.4a.57.57,0,0,0,.68.08c1.15-.58.88-2.33.55-3.32a6.13,6.13,0,0,0-2.39-3C24.06,6.66,23,8,23.8,8.68Z" transform="translate(-0.07)"/></g><g class="cls-13"><path class="cls-6" d="M24,8.66a10.55,10.55,0,0,1,1.45,3.66c.23,1.19.15,2.41.37,3.6.13.68,1,.5,1.21,0,1.05-2.56-.31-5.86-1.77-8-.53-.76-1.76-.07-1.26.74Z" transform="translate(-0.07)"/></g><g class="cls-13"><path class="cls-6" d="M25.16,11.89A4,4,0,0,1,25.53,15c-.44,1-1.44,1.25-2.07,2s-.26,1.9.77,1.84a4.41,4.41,0,0,0,3.54-3.1,6.18,6.18,0,0,0-1-4.83c-.62-1.05-2.06-.13-1.6.93Z" transform="translate(-0.07)"/></g><g class="cls-13"><path class="cls-6" d="M25.48,12.45a3,3,0,0,1-.34,2.44c-.73.82-2,.55-2.37,1.8a1.06,1.06,0,0,0,.28,1c1.26,1.26,3.5-.32,4.19-1.56a3.36,3.36,0,0,0,.37-1.94c-.09-1-.63-1.43-1-2.25-.29-.62-1.36-.18-1.12.47Z" transform="translate(-0.07)"/></g><g class="cls-13"><path class="cls-6" d="M24.74,12a5,5,0,0,1-.22,2.62c-.31.82-.92,1.43-1.27,2.22a1,1,0,0,0,1.39,1.39c2.18-1.18,2.45-4.6,1.86-6.71a.91.91,0,0,0-1.76.48Z" transform="translate(-0.07)"/></g><g class="cls-13"><path class="cls-6" d="M24.47,12.17A2.57,2.57,0,0,1,25,14.54a2.49,2.49,0,0,1-.77.78,2.71,2.71,0,0,0-1,1.25c-.3.72.44,1.28,1,1.35,1.48.2,2.83-1.56,3.08-2.87.28-1.55-.67-2.69-1.71-3.7-.55-.52-1.49.15-1.07.82Z" transform="translate(-0.07)"/></g><g class="cls-13"><path class="cls-6" d="M24.38,13.85c.41.65.07,1.1-.29,1.67-.57.93.6,2.19,1.54,1.54a3.1,3.1,0,0,0,.57-4.27,1.08,1.08,0,0,0-1.44-.38,1.06,1.06,0,0,0-.38,1.44Z" transform="translate(-0.07)"/></g><g class="cls-13"><path class="cls-6" d="M24.25,14.13c.22.95-.26,1.65-.31,2.57a1,1,0,0,0,1.76.73,2,2,0,0,0,.52-1.09,3.63,3.63,0,0,0,0-.93,4.66,4.66,0,0,0-.64-1.83.72.72,0,0,0-1.31.55Z" transform="translate(-0.07)"/></g><g class="cls-13"><path class="cls-6" d="M24.53,14.23a2.85,2.85,0,0,1-.05,1,3.59,3.59,0,0,0-.2,1.22.9.9,0,0,0,1.52.63c.91-.87.63-2.25.16-3.28a.77.77,0,0,0-1.43.38Z" transform="translate(-0.07)"/></g><g class="cls-13"><path class="cls-6" d="M24.37,16.09l-.2.1c-.19.12,0,0,0,0h0l-.08,0c-.07,0,0,0,.05,0s-.11,0,0,0c-.07-.08-.09-.1-.06-.05s0,0-.06-.08a1.46,1.46,0,0,0-.79-.49.87.87,0,0,0-1.06.6,1.4,1.4,0,0,0,.4,1.38,2.09,2.09,0,0,0,.95.53,1.93,1.93,0,0,0,2-1,.79.79,0,0,0-.12-1,.82.82,0,0,0-1-.12Z" transform="translate(-0.07)"/></g><g class="cls-13"><path class="cls-6" d="M21.54,15a18.53,18.53,0,0,1-1.83-3c-.5-1-.76-2.22-1.36-3.21a.78.78,0,0,0-1.45.4c.1,2.41,2,4.9,3.49,6.66.53.62,1.65-.22,1.15-.88Z" transform="translate(-0.07)"/></g><g class="cls-13"><path class="cls-6" d="M18.05,2.08c-1.32-1.36-2.38,0-2.66,1.44-.23,1.1-.53,3.09.2,4.07a.4.4,0,0,0,.69,0c.54-1.14-.41-5.83,1.76-5.49,0,0,0,0,0,0Z" transform="translate(-0.07)"/></g><g class="cls-13"><path class="cls-6" d="M15.59,2.3c-.74,1.92-1.2,4.81.22,6.53.31.37.84,0,.87-.36a17.67,17.67,0,0,0-.32-2.79,15,15,0,0,1,.11-3.14.46.46,0,0,0-.88-.24Z" transform="translate(-0.07)"/></g><g class="cls-13"><path class="cls-6" d="M15.82,2.88c-1.27,1.66-1.59,5.92.38,7.17A.57.57,0,0,0,17,9.71c.24-1.07-.35-2-.51-3.07a30.2,30.2,0,0,1,0-3.56.39.39,0,0,0-.72-.2Z" transform="translate(-0.07)"/></g><g class="cls-13"><path class="cls-6" d="M15.24,5.19c0,1.84.18,4.91,1.77,6.14a.44.44,0,0,0,.73-.31,9.07,9.07,0,0,0-.83-2.6,15.76,15.76,0,0,1-.81-3.23c-.07-.53-.86-.57-.86,0Z" transform="translate(-0.07)"/></g><path class="cls-7" d="M24.67,19.24c-7.33.42-14.92-18-6.66-18.9.22,0,.23-.35,0-.34-9,.37-1.37,20.18,6.66,19.69.29,0,.29-.47,0-.45Z" transform="translate(-0.07)"/><path class="cls-7" d="M19.28.61a3.34,3.34,0,0,1,2,1c.09.09.27,0,.19-.14A3,3,0,0,0,19.28.33c-.18,0-.17.26,0,.28Z" transform="translate(-0.07)"/><path class="cls-7" d="M22,2C25.1,5,33,15.42,25.81,18.58c-.24.1-.07.51.18.42,7.57-2.86-.16-14.23-3.83-17.15-.09-.08-.23,0-.14.14Z" transform="translate(-0.07)"/><g class="cls-8"><path class="cls-9" d="M16.36,10.13A9.25,9.25,0,0,0,19,14.41a15.34,15.34,0,0,0,3.83,3.28c3.57,1.64,5-4,3-6.1a.82.82,0,0,0-1.27.16A5,5,0,0,0,24,14.27a3.28,3.28,0,0,1-.15,1l-.22-.18c-.34,0-1-.85-1.3-1.08-1.5-1.26-3.16-2.51-3.74-4.47a1.15,1.15,0,0,0-2.21.61Z" transform="translate(-0.07)"/></g><g class="cls-8"><path class="cls-9" d="M19.18,15.61c.81,1.67,2.59,3.11,4.55,2.72,1.66-.32,3-2.6,2-4.14a.72.72,0,0,0-1.11-.14c-.55.53-.57,1.75-1.33,2s-2.08-.69-2.52-1.36a.9.9,0,0,0-1.56.91Z" transform="translate(-0.07)"/></g><g class="cls-8"><path class="cls-9" d="M21.72,18.19a2.62,2.62,0,0,0,2.9-.2,3.33,3.33,0,0,0,1.28-3,1,1,0,0,0-.59-.87,1,1,0,0,0-1,.19c-.37.47-.59,1-.92,1.49a1.12,1.12,0,0,1-.37.38c-.06,0-.23,0-.14.08a1.11,1.11,0,0,0-1.12,1.91Z" transform="translate(-0.07)"/></g><path class="cls-14" d="M11.2,27.67c.24,3.35,9.89,10.89,12,3.33S10.66,20.33,11.2,27.67Z" transform="translate(-0.07)"/><g class="cls-3"><path class="cls-15" d="M21.8,27.53a7.85,7.85,0,0,0-4.35-2.62c-1.36-.26-3.36-.24-4.29.95a.81.81,0,0,0,.56,1.36c1.15,0,2.13-.54,3.33-.34a5.93,5.93,0,0,1,3.38,2c.84.92,2.18-.44,1.37-1.36Z" transform="translate(-0.07)"/></g><g class="cls-3"><path class="cls-15" d="M18.35,25.9c-1.51-1.16-4.22-1.51-5.38.4s.49,4.94,2.54,5.5A1.22,1.22,0,0,0,16.87,30c-.37-.68-1.08-1.09-1.44-1.77a1.89,1.89,0,0,1-.16-.4s0-.29,0-.18-.12.17,0,0c-.13.17.21-.21.11-.14a1.15,1.15,0,0,1,.51-.21,5.62,5.62,0,0,1,1.83,0,.8.8,0,0,0,.61-1.45Z" transform="translate(-0.07)"/></g><g class="cls-3"><path class="cls-15" d="M16.86,25.82c.93.19,2.17.45,2.21,1.58a4.51,4.51,0,0,1-.75,2.12c-.59,1.18-1.12,3.14.76,3.36.85.1,1.25-1.11.68-1.64.29.27.16.44.16.44s.06-.32.08-.4c.08-.35.21-.68.29-1a11.73,11.73,0,0,0,.43-2.55c0-2.19-1.72-3.06-3.69-3.13a.64.64,0,0,0-.17,1.25Z" transform="translate(-0.07)"/></g><g class="cls-3"><path class="cls-15" d="M15.52,25c-1.06-.2-2.18-.36-3,.55a3,3,0,0,0-.26,3.26c.24.32.86.36,1-.13.14-.75-.34-1.65.13-2.36s1.43-.67,2-.65a.34.34,0,0,0,.09-.67Z" transform="translate(-0.07)"/></g><g class="cls-3"><path class="cls-15" d="M16.35,24.41a3.67,3.67,0,0,0-2.64.35A3.28,3.28,0,0,0,12.2,27a.68.68,0,0,0,.18.65c.9.7,1.21-.67,1.59-1.22a2.62,2.62,0,0,1,2.24-1c.56,0,.74-.93.14-1Z" transform="translate(-0.07)"/></g><g class="cls-3"><path class="cls-15" d="M18.33,25c-1.48-1.08-4.68-1.52-5.65.52-.18.37.13,1,.61.79a18.11,18.11,0,0,1,2-1,3.43,3.43,0,0,1,2.61.45c.48.27.85-.42.42-.73Z" transform="translate(-0.07)"/></g><g class="cls-16"><path class="cls-6" d="M20,29.53c-1.13.55-1.72.2-2.63-.52a1.24,1.24,0,0,0-1.59-.1,1.2,1.2,0,0,0-.31,1.56,4,4,0,0,0,5.59.86A1,1,0,0,0,20,29.53Z" transform="translate(-0.07)"/></g><g class="cls-16"><path class="cls-6" d="M19.92,31.29l0,.05-.06-.47c0,.15.08.86,0,.47l.08-.6s.88-.41.88-.33.1.09,0,0a1.28,1.28,0,0,0-.42-.17c-.26-.08-.54-.15-.8-.21-.67-.15-1.36-.25-2-.36a3.9,3.9,0,0,0-1.63,0c-1.29.38-.91,1.94.18,2.27s2-1.53.86-2c-.21-.09-.13-.15.05.07l.33.8h0l-.33.8a4.36,4.36,0,0,0-.73.32s.08,0,.11,0-.26-.05,0,0,.67.1,1,.13c.65.05,1.3.16,2,.17A2.87,2.87,0,0,0,21,31.89a.82.82,0,0,0-.18-1.52.77.77,0,0,0-.85.34h0l.37-.28-.06,0a.57.57,0,0,0-.34.83Z" transform="translate(-0.07)"/></g><g class="cls-16"><path class="cls-6" d="M19,29.8l-.15.16.23-.18c-.15.1-.29.2-.44.32l.22-.18-.16.1.25-.1-.1,0a1,1,0,0,0-.71.83,1,1,0,0,0,.07.52.89.89,0,0,0,.41.47,1.76,1.76,0,0,0,.9.21,1.92,1.92,0,0,0,1.13-.53,1.15,1.15,0,0,0,.34-.82,1.22,1.22,0,0,0-.34-.83,1.2,1.2,0,0,0-1.65,0Z" transform="translate(-0.07)"/></g><g class="cls-16"><path class="cls-6" d="M20.55,29.67l-.21,0a1.28,1.28,0,0,0-.88.37l-.08.07-.18.24a.79.79,0,0,0-.14.44.55.55,0,0,0,0,.31.77.77,0,0,0,.14.44,1.4,1.4,0,0,0,.42.42.79.79,0,0,0,.44.14.84.84,0,0,0,.47,0,1.29,1.29,0,0,0,.86-.59l.09-.17a1.11,1.11,0,0,0,0-1.09,1.09,1.09,0,0,0-.39-.38,1,1,0,0,0-.54-.15Z" transform="translate(-0.07)"/></g><g class="cls-16"><path class="cls-6" d="M20.28,30.78a2.67,2.67,0,0,1-2,.11c-.61-.21-1.05-.75-1.67-.87a.37.37,0,0,0-.45.45c.16.86,1.28,1.34,2.05,1.52a3.81,3.81,0,0,0,2.59-.34c.59-.29.08-1.13-.5-.87Z" transform="translate(-0.07)"/></g><path class="cls-7" d="M12,25c-2.46,3.53,1.66,7.82,4.78,9.23,3.41,1.54,7.21-1.75,6.54-5.32-.05-.27-.44-.15-.4.11a4.67,4.67,0,0,1-2.69,4.8c-1.92.88-3.52,0-5-1.21-2.21-1.75-4.79-4.48-2.9-7.42.13-.2-.18-.37-.31-.19Z" transform="translate(-0.07)"/><path class="cls-7" d="M13.1,24.19C16.34,23,22,24,22.76,28c0,.27.45.16.41-.11-.77-4.29-6.78-5.4-10.16-4-.18.07-.11.37.09.3Z" transform="translate(-0.07)"/><g class="cls-8"><path class="cls-9" d="M13.46,27a6,6,0,0,0,4.33,5.23C20,33,23.3,31.7,22.4,28.88c-.23-.75-1.49-.89-1.66,0-.33,1.85-2.38,1.31-3.55.63a3.65,3.65,0,0,1-2.11-2.7c-.13-.91-1.66-.69-1.62.22Z" transform="translate(-0.07)"/></g><g class="cls-8"><path class="cls-9" d="M14.74,29c-1,2.63,2.64,4.52,4.77,4a3.17,3.17,0,0,0,2.32-2.47c.19-1-.25-2.58-1.52-2.44a.8.8,0,0,0-.73.55c-.29.72.15,1.57-.74,2s-2.83-.29-2.69-1.42c.11-.86-1.14-.87-1.41-.19Z" transform="translate(-0.07)"/></g><g class="cls-8"><path class="cls-9" d="M16.33,32A3.42,3.42,0,0,0,20,32a2.94,2.94,0,0,0,1.08-3.63.92.92,0,0,0-1.67.22,3.1,3.1,0,0,1-.69,1.75,1.65,1.65,0,0,1-1.78.23c-.89-.34-1.4,1-.63,1.5Z" transform="translate(-0.07)"/></g></g></g></g></svg>